<?xml version="1.0" standalone="no"?>
<!DOCTYPE svg PUBLIC "-//W3C//DTD SVG 20010904//EN"
 "http://www.w3.org/TR/2001/REC-SVG-20010904/DTD/svg10.dtd">
<svg version="1.0" xmlns="http://www.w3.org/2000/svg"
 width="8000.000000pt" height="8000.000000pt" viewBox="0 0 8000.000000 8000.000000"
 preserveAspectRatio="xMidYMid meet">

<g transform="translate(0.000000,8000.000000) scale(0.100000,-0.100000)"
fill="#000000" stroke="none">
<path d="M39847 59553 c-4 -108 -7 -499 -7 -868 l0 -672 218 -6 c119 -2 220
-2 224 2 4 4 8 396 8 871 l1 865 -38 -3 c-93 -6 -350 -6 -374 0 l-26 8 -6
-197z"/>
<path d="M22678 58023 c-17 -18 -18 -59 -18 -559 0 -328 4 -553 10 -575 14
-50 42 -60 199 -70 88 -6 141 -14 156 -23 39 -25 46 -88 51 -435 6 -491 11
-7876 5 -8029 -8 -193 34 -176 -436 -168 -209 4 -392 9 -406 12 l-27 6 6 -154
c4 -137 -3 -244 -24 -345 l-6 -33 409 0 c455 0 444 2 462 -68 17 -68 21 -580
27 -4002 3 -1873 8 -3413 11 -3423 9 -32 67 -47 220 -57 141 -10 242 -6 272
10 11 6 13 601 15 3747 1 3487 2 3742 18 3759 16 18 94 19 2516 19 2446 0
2500 0 2521 -19 12 -11 26 -36 31 -57 7 -26 13 -1227 18 -3666 4 -1996 7
-3667 7 -3715 0 -78 3 -90 23 -110 22 -23 27 -23 246 -23 178 0 226 3 240 14
16 14 17 236 14 3771 -2 3632 -2 3757 16 3785 l18 28 307 -4 c168 -2 568 -2
889 0 l582 3 0 24 c0 13 -13 104 -29 201 -16 98 -32 204 -36 236 l-7 57 -844
0 c-820 0 -845 1 -863 19 -11 11 -22 39 -26 63 -3 24 -5 1951 -3 4283 2 3217
6 4246 15 4266 6 15 20 30 30 34 10 4 78 11 152 15 122 7 135 10 157 31 l23
24 5 395 c3 217 10 462 16 545 5 82 8 157 5 166 -6 19 -62 42 -77 32 -14 -8
-6606 -5 -6758 3 -106 6 -116 5 -132 -13z m3559 -444 l2882 3 44 -21 c59 -29
73 -57 70 -148 -5 -159 -11 -161 -410 -173 -341 -10 -4563 -11 -5285 -1 l-458
6 -25 25 c-21 22 -27 41 -36 118 -13 104 -7 154 21 182 18 18 30 19 167 13 82
-4 1445 -6 3030 -4z m2434 -845 c39 -35 40 -65 37 -1071 l-3 -972 -22 -23
c-18 -18 -33 -22 -80 -21 -639 7 -3369 22 -4040 22 l-902 1 -28 24 -28 24 -3
990 c-2 982 -2 989 18 1015 11 14 30 27 43 29 12 2 1140 2 2506 0 2222 -2
2486 -4 2502 -18z m-1959 -2555 c1695 0 1940 -2 1953 -15 8 -8 19 -32 25 -52
13 -46 30 -2632 17 -2680 -4 -18 -20 -40 -35 -50 -31 -20 221 -20 -2797 -9
l-2230 8 -23 25 -22 25 2 1361 3 1360 25 20 c25 21 30 21 585 14 308 -3 1432
-7 2497 -7z m1950 -3362 c59 -16 56 50 59 -1318 3 -979 0 -1259 -9 -1276 -28
-51 112 -48 -2557 -44 -1456 2 -2507 7 -2517 12 -44 23 -43 -6 -46 1269 -1
668 0 1239 4 1269 4 36 13 61 27 75 l22 21 2495 0 c1372 -1 2507 -4 2522 -8z"/>
<path d="M57358 57905 c-2 -2 -22 -5 -43 -6 -22 -1 -46 -7 -52 -12 -9 -6 -13
-5 -13 3 0 10 -3 10 -15 0 -8 -7 -15 -19 -15 -26 0 -8 -6 -14 -14 -14 -9 0
-13 7 -11 19 3 14 -1 18 -16 14 -17 -5 -17 -7 -4 -26 19 -27 19 -42 1 -25 -8
7 -12 16 -10 20 6 9 -23 4 -33 -6 -4 -4 -2 -6 5 -4 8 2 21 -8 30 -22 9 -14 12
-22 8 -18 -4 4 -19 3 -32 -2 -15 -6 -24 -6 -24 0 0 15 -26 12 -40 -5 -7 -9
-19 -14 -27 -11 -10 4 -12 -1 -7 -18 6 -23 -12 -73 -23 -63 -3 3 -1 12 3 19
16 25 14 44 -2 23 -9 -11 -20 -19 -25 -17 -5 1 -9 -2 -9 -8 0 -5 4 -10 8 -10
4 0 9 -10 9 -22 2 -16 0 -19 -6 -9 -5 7 -14 10 -20 7 -16 -10 -14 -26 3 -26 8
0 17 -4 20 -9 4 -5 -2 -7 -12 -4 -10 2 -24 -2 -31 -11 -13 -15 -41 -11 -41 6
0 6 6 5 15 -2 8 -7 15 -8 15 -2 0 5 -7 15 -15 22 -10 8 -15 9 -15 2 0 -6 -8
-9 -17 -6 -15 5 -15 4 -3 -5 12 -8 11 -11 -9 -19 -20 -7 -21 -9 -7 -21 14 -11
16 -11 16 3 0 10 5 14 11 11 7 -5 4 -14 -8 -28 -17 -19 -17 -20 0 -14 9 4 17
2 17 -2 0 -21 -26 -16 -42 8 -19 28 -24 22 -8 -9 7 -13 7 -21 -1 -26 -8 -4 -7
-9 2 -15 10 -6 10 -9 2 -9 -16 0 -28 21 -15 29 6 4 4 11 -5 20 -12 11 -14 10
-11 -5 2 -11 -2 -18 -9 -17 -7 2 -10 -7 -7 -22 2 -14 1 -25 -3 -24 -23 4 -30
-3 -26 -25 3 -13 0 -27 -6 -30 -7 -5 -8 -1 -4 10 4 11 3 15 -5 10 -6 -3 -13
-2 -17 4 -4 6 -11 7 -17 4 -6 -4 -8 -3 -5 3 3 5 0 10 -8 10 -18 0 -19 -9 -4
-24 7 -7 9 -23 5 -37 -5 -22 -9 -24 -20 -14 -15 15 -10 41 7 31 6 -4 7 -1 2 7
-6 10 -11 10 -20 -3 -7 -9 -16 -13 -20 -9 -4 4 -2 -3 4 -16 10 -19 10 -23 -1
-20 -8 2 -14 -1 -14 -7 0 -5 7 -9 16 -7 11 2 10 0 -3 -8 -9 -6 -15 -14 -13
-18 2 -4 -7 -12 -20 -19 -21 -10 -24 -9 -24 8 0 12 5 16 14 13 8 -3 17 -1 21
5 4 7 -2 10 -14 8 -25 -4 -32 -10 -35 -34 -2 -10 -11 -17 -20 -17 -8 1 -13 -2
-10 -7 7 -12 -10 -11 -22 1 -8 8 -15 6 -24 -5 -8 -10 -9 -15 -1 -15 6 0 11 5
11 10 0 6 6 5 14 -2 19 -18 11 -33 -19 -34 -15 -1 -22 2 -18 9 3 6 1 7 -6 3
-6 -4 -9 -11 -6 -16 3 -5 0 -12 -6 -16 -7 -4 -9 -3 -5 4 3 6 2 13 -4 17 -5 3
-10 -2 -11 -12 0 -10 -2 -26 -4 -35 -4 -24 3 -23 26 5 10 13 18 17 19 9 0 -7
5 -10 12 -6 7 4 8 3 4 -5 -4 -6 -11 -9 -16 -6 -12 7 -33 -23 -27 -40 4 -8 1
-17 -5 -21 -6 -4 -8 -3 -4 4 3 6 -1 18 -11 27 -16 16 -17 16 -23 -1 -5 -12 -1
-24 9 -32 9 -8 11 -11 5 -8 -31 15 -46 -63 -45 -224 2 -366 210 -689 542 -844
117 -54 189 -74 314 -86 176 -16 322 10 490 90 116 55 199 114 283 204 80 86
115 139 167 249 52 113 72 184 84 307 46 437 -220 853 -635 994 -91 30 -302
64 -316 51z m-244 -132 c3 -8 2 -11 -3 -8 -6 3 -18 -8 -27 -24 -10 -17 -22
-28 -26 -25 -5 3 -4 11 1 18 6 7 8 16 4 19 -3 4 2 9 11 13 9 3 14 9 11 13 -2
4 2 8 10 8 8 0 17 -7 19 -14z m-158 -175 c4 -7 3 -8 -4 -4 -7 4 -12 2 -12 -5
0 -7 -3 -10 -6 -6 -6 5 3 27 11 27 2 0 7 -5 11 -12z m-232 -213 c-4 -8 -13
-15 -20 -15 -12 0 -12 3 -2 15 17 19 29 19 22 0z m-80 -80 c-4 -8 -11 -12 -17
-8 -8 5 -7 8 1 11 7 2 9 9 6 14 -4 7 -2 8 4 4 6 -4 9 -13 6 -21z m-37 -27 c-3
-8 -6 -5 -6 6 -1 11 2 17 5 13 3 -3 4 -12 1 -19z m-40 -14 c-3 -3 -12 -4 -19
-1 -8 3 -5 6 6 6 11 1 17 -2 13 -5z m-11 -56 c4 -6 3 -8 -4 -4 -6 3 -13 2 -17
-4 -4 -6 -11 -7 -18 -3 -9 6 -3 10 30 22 1 1 5 -4 9 -11z"/>
<path d="M57100 57830 c-13 -8 -12 -10 3 -10 9 0 17 5 17 10 0 12 -1 12 -20 0z"/>
<path d="M57130 57819 c0 -5 5 -7 10 -4 6 3 10 8 10 11 0 2 -4 4 -10 4 -5 0
-10 -5 -10 -11z"/>
<path d="M56938 57673 c8 -13 16 -23 17 -23 1 0 5 10 7 23 3 17 0 22 -17 22
-21 0 -21 -2 -7 -22z"/>
<path d="M56828 57603 c7 -3 16 -2 19 1 4 3 -2 6 -13 5 -11 0 -14 -3 -6 -6z"/>
<path d="M56750 57566 c0 -2 7 -7 16 -10 8 -3 12 -2 9 4 -6 10 -25 14 -25 6z"/>
<path d="M56800 57550 c0 -5 -10 -18 -22 -30 -16 -14 -19 -23 -11 -31 8 -8 13
-8 17 0 4 6 1 11 -6 11 -7 1 -4 6 7 13 18 11 34 47 20 47 -3 0 -5 -4 -5 -10z"/>
<path d="M56640 57485 c0 -2 9 -9 19 -15 14 -7 22 -7 27 2 4 6 3 8 -4 4 -6 -3
-13 -2 -17 4 -6 10 -25 14 -25 5z"/>
<path d="M56590 57364 c0 -8 5 -12 10 -9 6 4 8 11 5 16 -9 14 -15 11 -15 -7z"/>
<path d="M50862 55772 c-65 -5 -74 -26 -63 -143 12 -119 17 -427 8 -455 -13
-37 -56 -47 -169 -39 -109 7 -153 -1 -165 -31 -3 -10 1 -81 10 -158 18 -150
29 -775 43 -2426 3 -432 8 -788 10 -791 4 -8 4 -3701 0 -4517 -3 -557 -5 -615
-20 -630 -15 -16 -98 -17 -1041 -17 -564 0 -1025 1 -1025 2 0 2 13 44 29 95
16 51 43 145 60 208 17 63 40 144 50 180 11 36 24 90 30 120 46 230 81 384 89
389 5 3 14 20 19 36 6 17 14 38 18 48 5 12 2 17 -9 17 -20 0 -21 -17 13 206
98 633 130 1215 100 1804 -17 331 -32 486 -48 482 -9 -2 -10 4 -6 20 7 22 6
22 -11 5 -16 -14 -17 -21 -6 -37 10 -17 10 -20 -3 -20 -8 0 -16 5 -16 10 -1 6
-2 14 -3 19 0 5 -5 13 -10 18 -5 5 -6 3 -2 -4 4 -8 1 -13 -9 -13 -9 0 -13 5
-10 10 3 6 1 10 -4 10 -6 0 -11 -5 -11 -12 0 -6 -3 -8 -7 -5 -12 13 -30 -27
-26 -58 3 -21 0 -32 -9 -34 -7 -1 -24 -3 -39 -4 -31 -4 -49 -15 -49 -30 0 -7
4 -6 10 3 8 12 10 11 10 -7 0 -25 -10 -29 -27 -12 -7 7 -13 8 -17 0 -4 -6 4
-13 19 -17 13 -3 23 -10 20 -14 -3 -5 -15 -6 -27 -2 -16 4 -20 1 -16 -9 3 -8
-8 -25 -26 -39 -16 -14 -27 -19 -23 -12 5 6 4 12 -2 12 -6 0 -11 -8 -11 -17 0
-15 -2 -14 -15 3 -14 19 -14 19 -10 -2 4 -27 -35 -49 -56 -31 -7 7 -5 2 4 -10
12 -13 14 -23 8 -27 -6 -4 -8 -13 -5 -20 3 -8 -4 -16 -16 -19 -14 -4 -19 -10
-14 -18 4 -7 3 -10 -4 -5 -6 3 -13 2 -17 -4 -4 -6 -12 -7 -18 -3 -18 11 -36
12 -43 2 -3 -5 2 -9 10 -9 8 0 17 -4 20 -8 3 -5 -8 -6 -25 -4 -26 4 -41 -10
-21 -21 4 -2 1 -2 -6 -1 -20 5 -62 -15 -62 -30 0 -7 -7 -17 -16 -20 -9 -3 -14
-15 -12 -28 2 -11 -3 -23 -10 -25 -7 -3 -10 1 -6 11 3 9 1 16 -6 16 -6 0 -8
-4 -5 -10 3 -5 0 -10 -7 -10 -8 -1 -5 -7 7 -16 20 -15 20 -15 0 -12 -11 2 -27
8 -35 13 -11 6 -10 3 3 -12 21 -24 22 -43 2 -43 -14 0 -20 -13 -15 -35 1 -5
-4 -5 -10 1 -16 16 -3 57 16 50 21 -8 17 2 -6 14 -11 6 -20 7 -19 3 3 -18 -2
-33 -11 -33 -5 0 -7 8 -4 18 5 16 5 16 -9 0 -8 -10 -17 -16 -20 -13 -4 3 -4 2
-1 -2 3 -5 10 -8 16 -8 6 0 12 -8 14 -17 1 -10 -2 -18 -7 -18 -6 0 -8 -4 -4
-9 3 -5 1 -12 -5 -16 -6 -4 -7 -11 -4 -17 4 -6 0 -6 -13 1 -11 6 -23 8 -26 5
-3 -3 -4 1 -4 10 1 8 -2 15 -8 15 -5 1 -10 -11 -9 -25 0 -24 -1 -25 -14 -7
-13 17 -13 16 -10 -7 2 -15 -2 -24 -9 -23 -14 3 -27 -32 -18 -47 4 -6 1 -9 -7
-8 -8 2 -13 -7 -12 -24 0 -15 -4 -24 -9 -21 -4 3 -6 11 -3 19 3 8 1 14 -5 14
-6 0 -9 -11 -7 -25 2 -13 0 -23 -4 -22 -4 1 -14 -7 -22 -18 -13 -17 -18 -18
-35 -8 -13 8 -22 9 -26 3 -3 -6 -14 -10 -23 -10 -15 0 -15 2 -2 10 12 7 11 9
-6 8 -16 -2 -19 -7 -16 -31 3 -20 1 -28 -6 -23 -6 3 -14 1 -18 -5 -5 -8 -3 -9
6 -4 8 5 11 3 8 -5 -7 -21 -28 -24 -29 -3 0 10 -3 13 -5 6 -3 -7 0 -21 6 -32
9 -17 8 -21 -5 -21 -10 0 -13 -5 -9 -12 5 -8 0 -7 -11 2 -11 9 -16 10 -11 3 7
-13 -3 -17 -34 -14 -9 1 -11 -1 -5 -6 6 -4 11 -12 12 -18 1 -5 5 -19 9 -29 5
-14 4 -17 -4 -12 -7 4 -12 13 -12 21 0 12 -10 18 -45 27 -5 2 -10 -13 -11 -33
-1 -46 -10 -69 -25 -69 -8 0 -8 4 1 15 11 13 10 14 -4 9 -9 -3 -16 -12 -16
-20 0 -8 -5 -14 -11 -14 -5 0 -7 5 -3 12 4 7 3 8 -5 4 -6 -4 -9 -11 -6 -16 11
-18 -19 -22 -33 -4 -12 16 -14 16 -9 2 3 -10 2 -20 -3 -23 -6 -4 -10 -1 -10 6
0 7 -3 9 -6 6 -8 -8 14 -37 28 -37 5 0 6 5 3 10 -3 6 1 10 10 10 9 0 14 -4 11
-9 -3 -5 1 -11 9 -15 8 -3 15 -11 15 -18 0 -9 -2 -10 -8 -1 -8 13 -72 20 -89
10 -6 -4 -10 -17 -8 -28 3 -17 0 -20 -23 -17 -19 2 -26 -1 -24 -11 2 -11 0
-12 -10 -3 -11 8 -14 7 -15 -6 -1 -11 6 -18 18 -18 15 0 19 5 15 20 -3 13 -2
16 6 8 14 -14 2 -46 -14 -36 -8 5 -9 0 -6 -14 4 -12 2 -20 -2 -17 -5 3 -12 -1
-17 -8 -6 -12 -12 -10 -28 6 -20 19 -20 19 1 13 19 -6 20 -3 15 26 -3 24 -6
27 -9 13 -2 -11 -11 -24 -18 -28 -8 -5 -11 -14 -7 -20 12 -20 12 -38 0 -34 -7
2 -18 -5 -25 -17 -11 -19 -12 -18 -8 12 2 17 1 32 -4 32 -4 0 -7 -12 -7 -26 0
-14 -6 -31 -12 -37 -10 -9 -11 -5 -7 18 6 28 5 28 -8 -5 -8 -19 -15 -29 -15
-22 -1 6 -9 12 -18 12 -10 0 -14 -4 -8 -8 18 -13 13 -52 -6 -52 -10 0 -21 -5
-25 -12 -4 -6 -3 -9 2 -5 5 3 9 -5 9 -17 0 -14 -7 -23 -17 -23 -10 -1 -18 3
-18 8 0 6 5 7 10 4 12 -8 13 5 1 24 -6 9 -11 10 -15 2 -4 -6 -4 -11 0 -11 3 0
1 -6 -5 -14 -6 -7 -8 -22 -5 -32 6 -16 4 -17 -6 -7 -17 16 -22 43 -7 43 5 0 8
3 4 6 -3 3 -14 1 -24 -5 -10 -6 -13 -11 -7 -11 18 0 12 -30 -7 -30 -24 0 -33
-18 -19 -35 10 -12 5 -18 -24 -36 -20 -11 -36 -23 -36 -26 0 -2 6 -1 13 3 9 6
9 4 -1 -8 -13 -16 -56 -33 -47 -18 3 5 1 11 -5 15 -5 3 -10 1 -10 -5 0 -6 -5
-8 -12 -4 -8 5 -7 0 2 -11 14 -17 13 -18 -13 -11 -22 5 -28 4 -25 -6 3 -7 17
-13 31 -13 20 1 23 -2 15 -12 -8 -10 -6 -13 8 -13 15 0 16 -2 5 -9 -10 -7 -19
-4 -27 7 -10 14 -14 14 -28 3 -8 -7 -21 -11 -28 -8 -9 4 -7 6 4 6 11 1 15 7
11 21 -3 11 -10 20 -15 20 -5 0 -6 -5 -2 -12 4 -6 -1 -17 -10 -24 -16 -11 -16
-13 2 -18 11 -4 23 -14 26 -23 5 -12 3 -13 -6 -5 -14 11 -43 -10 -31 -22 4 -3
2 -6 -4 -6 -6 0 -16 7 -23 15 -12 15 -30 12 -30 -5 0 -5 6 -7 14 -4 14 5 33
-43 21 -54 -3 -3 -8 3 -11 15 -7 25 -37 36 -54 19 -8 -8 -13 -7 -20 4 -7 11
-10 12 -10 2 0 -8 9 -16 19 -19 12 -3 17 -11 14 -19 -3 -9 2 -14 13 -15 17 0
17 -1 -1 -8 -25 -10 -36 -5 -28 14 3 10 -2 15 -16 15 -24 0 -30 -36 -6 -38 8
-1 22 -3 30 -4 8 -1 15 -5 15 -9 0 -5 -13 -6 -30 -2 -23 4 -30 2 -30 -10 0 -9
8 -18 18 -20 15 -4 15 -5 -2 -6 -13 -1 -16 -6 -12 -18 5 -16 4 -16 -8 1 -9 10
-20 15 -27 10 -8 -4 -10 -3 -5 4 4 7 2 12 -4 12 -6 0 -8 5 -5 10 5 8 11 8 19
1 9 -8 13 -7 13 4 0 8 -4 12 -9 9 -4 -3 -8 0 -8 5 0 6 5 11 12 11 6 0 8 3 5 7
-11 10 -48 -35 -45 -55 2 -10 -2 -16 -11 -14 -10 2 -12 -4 -7 -25 5 -23 4 -25
-4 -10 -18 28 -32 9 -16 -21 17 -34 10 -61 -9 -35 -11 14 -15 15 -29 4 -9 -7
-23 -10 -32 -7 -13 5 -14 3 -6 -6 8 -10 4 -14 -19 -14 -17 -1 -26 2 -22 9 3 6
1 7 -5 3 -12 -7 2 -43 21 -57 4 -3 -2 -14 -13 -24 -19 -17 -20 -17 -27 1 -4
11 -14 26 -22 34 -13 13 -14 13 -9 -2 8 -19 -14 -31 -39 -21 -17 6 -17 6 -1
-10 17 -18 16 -59 -2 -65 -6 -2 -6 -11 2 -25 11 -22 10 -22 -10 -4 -12 11 -23
14 -26 9 -3 -6 0 -13 6 -15 10 -4 10 -6 0 -6 -7 -1 -10 -6 -6 -12 3 -6 -5 -3
-20 6 -24 16 -26 16 -26 1 0 -10 -4 -15 -8 -12 -5 3 -8 -5 -8 -17 1 -13 -4
-21 -12 -19 -8 1 -11 -2 -7 -8 3 -5 -2 -10 -12 -11 -11 0 -13 -3 -5 -6 6 -2 9
-9 6 -14 -10 -17 -32 10 -27 31 3 11 9 18 13 15 5 -3 11 -1 15 5 3 5 1 10 -5
10 -6 0 -8 6 -5 13 4 6 -1 3 -9 -7 -9 -11 -16 -24 -16 -29 0 -6 -8 -16 -17
-23 -17 -12 -17 -13 2 -21 11 -4 22 -15 23 -23 2 -8 0 -11 -4 -7 -5 4 -16 -7
-25 -24 l-16 -33 1 45 c0 39 -2 44 -19 41 -28 -5 -31 -10 -15 -25 10 -9 11 -9
6 1 -4 6 -5 12 -2 12 3 0 10 -9 16 -20 6 -11 7 -19 3 -18 -5 2 -20 -8 -33 -21
-14 -13 -18 -20 -10 -16 12 7 13 6 3 -7 -7 -8 -10 -18 -6 -21 3 -4 1 -7 -6 -7
-9 0 -9 -5 -1 -21 7 -11 9 -23 6 -26 -3 -3 -10 6 -15 21 -7 16 -18 26 -31 26
-32 0 -90 -27 -90 -42 0 -10 2 -10 9 1 10 16 31 6 31 -14 0 -8 -7 -11 -19 -8
-10 3 -22 -1 -26 -8 -5 -7 -4 -10 1 -6 6 3 11 -5 12 -19 1 -20 -9 -31 -21 -21
-2 1 -12 -5 -22 -13 -17 -13 -18 -13 -10 0 6 12 5 13 -5 3 -12 -11 -11 -15 5
-26 12 -10 15 -16 6 -21 -6 -4 -14 0 -17 8 -3 9 -10 14 -14 11 -5 -3 -7 6 -4
20 3 15 0 25 -7 25 -7 0 -9 -3 -6 -7 4 -3 2 -12 -3 -19 -8 -8 -6 -16 5 -27 9
-10 11 -18 5 -22 -6 -4 -8 -10 -6 -14 3 -4 -4 -7 -14 -8 -13 -1 -17 3 -13 13
3 7 10 11 15 8 6 -4 9 -1 6 6 -7 23 -28 23 -28 0 0 -13 -4 -19 -11 -14 -8 4
-8 1 -1 -12 15 -29 10 -72 -8 -69 -8 1 -19 -3 -23 -9 -6 -7 -7 -4 -3 7 6 19
-10 24 -17 5 -3 -7 -6 -2 -6 11 -1 20 -3 21 -16 11 -8 -7 -12 -16 -9 -21 3 -5
2 -9 -3 -9 -4 0 -19 -10 -33 -21 -14 -11 -20 -18 -13 -15 6 3 14 0 16 -6 3 -8
6 -6 6 5 1 9 6 17 11 17 7 0 7 -6 0 -20 -9 -16 -15 -18 -36 -10 -33 13 -44 12
-21 -1 18 -11 24 -39 7 -39 -6 0 -14 -10 -19 -22 -5 -13 -10 -17 -15 -10 -3 6
3 20 15 30 13 13 17 22 10 27 -16 9 -31 -3 -31 -26 0 -19 -16 -27 -22 -10 -1
5 -9 3 -16 -5 -11 -12 -9 -14 13 -14 20 0 24 -4 22 -22 -2 -12 -10 -24 -16
-26 -9 -3 -11 2 -7 16 6 17 3 19 -14 15 -11 -3 -28 1 -38 8 -15 12 -16 12 -5
-2 7 -9 10 -19 6 -23 -4 -4 1 -4 12 -1 16 6 16 3 -5 -15 -21 -18 -22 -21 -5
-15 17 5 18 4 5 -7 -8 -7 -20 -19 -26 -26 -9 -10 -13 -8 -17 8 -3 13 -1 18 6
13 7 -3 9 -3 5 2 -4 4 -3 14 3 21 7 9 6 14 -3 20 -7 4 -10 4 -6 0 8 -9 -14
-36 -24 -30 -3 2 -4 -5 -1 -16 4 -14 0 -20 -11 -20 -10 0 -15 4 -11 9 3 5 1
12 -3 15 -8 4 -9 -24 -3 -68 0 -5 7 -3 15 3 14 12 15 10 7 -28 -1 -2 -7 1 -14
7 -6 6 -27 9 -45 8 -17 -1 -32 1 -32 6 0 4 -5 8 -11 8 -8 0 -8 -5 1 -15 10
-12 10 -15 -1 -15 -9 0 -10 -3 -4 -8 10 -6 11 -15 6 -39 -1 -5 -6 -1 -11 7 -7
11 -10 12 -10 2 0 -9 -7 -11 -20 -7 -22 7 -26 -5 -8 -23 10 -10 5 -11 -21 -6
-25 5 -32 4 -27 -5 4 -6 11 -9 15 -7 4 3 8 -4 8 -15 1 -10 -3 -19 -8 -19 -6 0
-8 4 -5 8 3 5 -1 9 -9 9 -7 0 -12 -8 -10 -19 2 -10 -2 -18 -8 -18 -7 0 -6 -4
3 -10 11 -7 6 -8 -17 -4 -38 8 -41 2 -13 -24 l21 -19 -27 5 c-24 4 -26 2 -20
-14 6 -15 5 -16 -5 -7 -10 10 -9 15 1 28 19 23 -6 19 -30 -5 -18 -18 -18 -24
2 -21 14 2 20 -42 7 -50 -23 -15 -34 -10 -13 6 16 12 17 14 2 15 -9 0 -20 9
-23 20 -9 27 -20 25 -20 -4 0 -13 3 -22 6 -20 3 1 6 -4 6 -12 0 -9 -6 -13 -14
-9 -8 3 -16 5 -19 5 -2 0 -1 8 2 18 5 14 4 14 -4 3 -9 -13 -13 -13 -28 0 -16
13 -16 12 -5 -9 7 -12 16 -20 21 -17 13 8 24 -35 12 -47 -6 -6 -12 -6 -16 1
-4 6 -12 11 -17 11 -6 0 -7 -4 -4 -10 3 -6 -1 -7 -9 -4 -9 3 -14 9 -12 13 3 4
-4 7 -14 7 -10 0 -17 -4 -14 -8 2 -4 -3 -11 -12 -16 -16 -9 -15 -11 5 -21 12
-7 18 -17 15 -23 -5 -7 -12 -5 -20 7 -16 22 -26 15 -28 -17 -1 -17 -7 -23 -23
-22 -12 0 -20 -3 -17 -7 2 -4 -2 -10 -8 -12 -7 -3 -4 -6 6 -6 18 -1 19 -2 2
-18 -9 -10 -24 -27 -32 -38 -13 -17 -13 -15 0 12 9 17 12 34 7 37 -5 3 -11 -3
-14 -13 -4 -15 -10 -18 -28 -14 -23 6 -23 6 -6 -11 21 -21 15 -35 -8 -16 -13
11 -15 9 -16 -11 l-1 -24 -8 25 c-8 25 -8 24 -9 -5 -1 -23 -3 -27 -11 -15 -5
8 -10 13 -11 10 0 -3 -2 -13 -4 -23 -2 -9 1 -15 5 -12 5 3 12 0 16 -6 4 -8 3
-9 -4 -5 -7 4 -12 1 -12 -8 0 -10 -9 -16 -25 -16 -14 0 -25 -5 -25 -11 0 -5
-4 -8 -9 -5 -5 3 -11 -1 -15 -9 -3 -9 0 -15 9 -15 8 0 15 -5 15 -11 0 -5 -4
-8 -9 -5 -4 3 -17 -1 -27 -9 -18 -13 -18 -14 -1 -20 9 -4 17 -15 16 -24 0 -11
-2 -12 -6 -3 -4 10 -8 10 -21 0 -15 -11 -15 -11 -5 3 13 16 8 29 -9 29 -5 0
-7 -4 -3 -9 3 -5 1 -12 -5 -16 -6 -4 -8 -11 -5 -16 3 -5 -1 -6 -9 -3 -9 3 -16
10 -16 16 0 5 5 6 10 3 6 -4 10 5 10 21 0 26 -15 26 -15 1 0 -7 -9 -11 -20 -9
-12 2 -16 0 -9 -5 13 -10 14 -43 2 -43 -5 0 -6 -5 -3 -10 4 -6 11 -8 16 -5 5
4 9 -1 9 -11 0 -14 -2 -15 -17 -3 -9 8 -24 13 -33 11 -10 -2 -20 4 -23 13 -4
8 -2 15 3 15 5 0 6 8 3 17 -6 15 -7 14 -13 -3 -4 -10 -3 -27 2 -36 5 -12 5
-18 -2 -18 -5 0 -10 6 -11 13 0 6 -5 -1 -11 -16 -7 -20 -7 -32 2 -41 7 -10 8
-16 0 -21 -5 -3 -10 -2 -10 3 0 5 -10 9 -22 8 -13 -1 -26 2 -29 7 -3 5 -9 2
-12 -6 -4 -10 2 -17 19 -21 13 -4 24 -11 24 -17 0 -8 -4 -8 -14 0 -11 9 -16 9
-22 0 -5 -9 -11 -7 -20 6 -12 16 -13 16 -11 -4 1 -11 7 -21 14 -21 7 0 13 -4
13 -8 0 -5 -15 -6 -32 -4 -31 5 -32 4 -18 -13 8 -11 10 -16 4 -12 -15 9 -36
-37 -22 -51 6 -6 5 -12 -4 -17 -7 -5 -10 -5 -6 0 8 9 -15 35 -31 35 -6 0 -11
5 -11 11 0 5 -5 7 -10 4 -8 -5 -7 -11 1 -21 6 -7 15 -11 20 -8 5 3 9 1 9 -5 0
-5 -9 -11 -20 -13 -12 -2 -19 -7 -18 -13 2 -5 6 -9 10 -8 8 3 4 -24 -5 -33 -4
-4 -7 0 -7 9 0 17 -15 23 -23 10 -2 -5 -3 -3 -1 4 1 6 -6 13 -17 16 -17 5 -18
3 -8 -10 10 -12 10 -16 0 -23 -10 -6 -8 -10 8 -15 24 -7 28 -22 6 -22 -8 0
-12 4 -9 9 11 18 -78 1 -97 -19 -16 -15 -17 -20 -5 -20 8 0 13 4 10 8 -13 22
54 31 75 11 13 -12 12 -15 -2 -24 -10 -5 -15 -13 -12 -19 4 -5 1 -9 -4 -9 -15
0 -14 27 2 33 20 7 3 17 -21 11 -12 -4 -27 -19 -34 -34 -7 -16 -16 -26 -20
-24 -5 3 -6 9 -4 13 3 4 -1 8 -8 8 -8 0 -12 -6 -9 -14 3 -7 -2 -13 -11 -13
-14 0 -20 12 -17 33 2 13 -16 7 -30 -10 -12 -14 -12 -16 0 -8 11 6 13 4 8 -8
-4 -11 -2 -14 7 -11 8 3 17 0 21 -6 5 -8 11 -8 21 1 8 6 14 7 14 2 0 -5 -11
-15 -24 -21 -18 -8 -24 -18 -22 -36 2 -14 -1 -26 -7 -26 -5 0 -7 9 -4 20 3 11
1 18 -4 14 -12 -7 -11 -44 1 -44 6 0 10 -5 10 -11 0 -8 -6 -7 -16 2 -15 12
-16 11 -10 -11 6 -19 5 -21 -3 -10 -6 8 -8 22 -6 30 2 8 0 22 -6 30 -9 13 -10
13 -6 -1 4 -12 0 -15 -20 -11 -17 3 -24 0 -23 -9 5 -31 -1 -38 -26 -33 -20 4
-27 0 -31 -16 -3 -11 -10 -20 -15 -20 -5 0 -6 -4 -3 -10 3 -6 -1 -7 -9 -4 -25
10 -18 -6 7 -16 19 -8 17 -9 -13 -7 -19 1 -38 7 -42 12 -5 6 -8 6 -8 -1 0 -6
8 -18 17 -25 9 -8 14 -9 10 -2 -5 7 0 9 15 5 l22 -5 -22 -8 c-12 -5 -22 -14
-23 -21 0 -7 -5 -4 -10 7 -7 16 -8 13 -4 -13 3 -23 1 -31 -7 -26 -8 5 -9 1 -4
-12 6 -16 4 -16 -14 4 -24 26 -40 28 -40 6 0 -8 -5 -12 -10 -9 -6 4 -8 11 -5
16 4 5 1 9 -5 9 -7 0 -9 -8 -5 -21 5 -15 4 -19 -4 -15 -6 4 -11 2 -11 -3 0 -6
-5 -10 -11 -9 -6 2 -14 -4 -16 -12 -4 -13 -3 -13 6 0 8 11 11 12 11 2 0 -10 4
-9 16 3 14 13 19 14 25 3 7 -10 9 -9 9 4 0 26 15 30 35 8 17 -19 17 -19 -3
-15 -16 3 -27 -6 -43 -35 -18 -32 -25 -37 -40 -30 -19 11 -49 4 -49 -11 0 -4
8 -6 18 -3 9 3 4 -2 -12 -11 -15 -9 -42 -18 -58 -21 -33 -4 -51 -14 -26 -14 9
0 19 -7 22 -16 8 -22 8 -23 -11 -19 -10 1 -17 7 -16 12 1 5 -7 14 -17 21 -17
10 -18 9 -5 -15 8 -15 11 -31 8 -36 -4 -6 0 -8 8 -5 10 4 15 -1 16 -14 2 -19
1 -19 -16 -4 -29 27 -55 20 -53 -14 0 -3 -11 -14 -26 -24 -14 -11 -22 -14 -18
-8 4 7 2 12 -3 12 -6 0 -11 -9 -11 -21 0 -11 4 -18 9 -15 5 4 6 -4 3 -16 -5
-19 -7 -20 -10 -5 -5 23 -23 22 -29 -3 -6 -21 -23 -28 -23 -9 0 5 -3 8 -8 5
-4 -2 -14 1 -23 7 -17 14 -21 57 -3 50 6 -2 14 3 18 12 3 9 2 13 -4 10 -6 -3
-10 -2 -10 4 0 5 5 13 10 16 6 3 10 10 10 14 0 10 -49 1 -56 -10 -3 -5 2 -6
10 -3 10 4 16 1 16 -9 0 -18 -20 -36 -46 -40 -10 -1 -24 -6 -31 -10 -21 -13
-7 35 32 108 20 39 41 76 47 83 6 6 7 12 3 12 -4 0 -14 -8 -22 -17 -14 -17
-14 -17 -9 -1 3 10 0 20 -6 24 -6 4 -8 3 -4 -4 3 -6 -1 -15 -10 -20 -12 -7
-14 -14 -7 -27 6 -10 8 -26 6 -36 -5 -17 -6 -17 -26 2 -24 22 -33 24 -43 7 -5
-7 -2 -9 7 -4 8 4 5 0 -6 -9 -20 -17 -19 -17 6 -11 18 4 31 1 40 -11 13 -15
11 -16 -11 -10 -15 4 -30 1 -41 -9 -19 -17 -69 -26 -69 -13 0 5 8 17 18 27 10
10 18 26 16 35 -1 9 1 17 5 17 9 0 63 95 61 106 -1 4 2 10 7 13 37 25 67 126
31 105 -10 -6 -9 -3 0 9 8 9 10 22 6 29 -4 7 -4 10 1 6 11 -10 38 20 29 34 -5
7 -2 9 9 5 9 -3 18 -1 21 6 3 7 5 6 5 -3 1 -9 -8 -22 -18 -30 -11 -7 -17 -18
-14 -23 3 -6 1 -7 -4 -4 -12 7 -25 -17 -16 -27 10 -10 25 -7 18 4 -3 6 -2 10
3 10 13 0 54 88 47 100 -3 5 -2 10 4 10 12 0 41 28 41 40 0 5 -7 7 -15 4 -8
-4 -13 -10 -10 -14 3 -4 -1 -10 -9 -13 -8 -3 -17 1 -20 9 -9 24 -7 31 5 14 9
-13 10 -13 6 0 -6 24 -32 18 -31 -7 1 -13 -4 -23 -12 -23 -8 0 -14 -5 -14 -10
0 -7 6 -7 19 0 25 13 28 13 28 -5 0 -8 -4 -12 -9 -9 -5 3 -17 -1 -26 -9 -22
-20 -33 -22 -42 -7 -6 9 -11 7 -19 -9 -8 -14 -8 -21 -1 -21 5 0 10 4 10 10 0
5 7 7 17 3 14 -5 13 -8 -5 -14 -14 -5 -22 -17 -22 -31 0 -19 -2 -20 -10 -8 -5
8 -10 13 -11 10 -6 -36 -9 -44 -18 -53 -8 -8 -11 -6 -11 7 0 9 -4 14 -10 11
-5 -3 -10 -1 -10 5 0 7 8 9 20 5 15 -5 18 -3 14 9 -3 9 -10 14 -14 11 -5 -3 2
15 16 40 14 24 22 50 18 56 -4 8 -3 9 4 5 6 -3 16 3 22 14 10 19 4 26 -23 21
-5 -1 -6 3 -2 8 3 6 13 7 22 4 20 -8 44 23 36 45 -5 11 -3 13 7 7 10 -6 12 -4
7 9 -4 9 -3 14 2 11 5 -3 12 -1 16 5 3 5 -3 10 -14 10 -11 0 -22 4 -25 9 -4 5
4 7 16 4 23 -5 23 -5 3 11 -11 10 -14 15 -7 11 6 -3 12 -1 12 4 0 30 18 64 29
56 5 -2 14 2 21 10 9 10 9 15 1 15 -6 0 -11 4 -11 10 0 5 8 6 18 3 14 -6 15
-4 4 9 -10 12 -10 17 -1 20 7 2 13 11 14 19 2 7 25 53 53 101 28 49 46 91 41
94 -13 8 -3 66 13 79 7 5 14 16 16 24 2 8 21 44 43 81 45 76 48 90 17 91 -13
0 -17 3 -10 6 6 2 12 9 12 15 0 6 8 17 18 25 9 8 11 11 3 7 -17 -9 -7 11 22
44 11 12 17 22 14 22 -4 0 4 18 18 40 14 22 25 45 25 51 0 6 7 9 14 6 10 -4
13 -1 10 7 -6 15 29 79 38 71 3 -3 4 5 3 19 -2 15 3 27 12 30 9 4 13 13 9 22
-3 8 -2 12 4 9 5 -3 14 4 20 15 6 11 8 20 4 20 -4 0 0 8 9 18 10 10 14 22 10
25 -3 4 -1 7 6 7 7 0 10 10 7 26 -4 19 9 53 44 119 28 50 47 95 43 98 -3 4 -2
7 4 7 6 0 20 18 31 40 10 22 16 37 11 35 -4 -3 -10 -1 -14 5 -3 5 -1 10 5 10
7 0 9 7 6 16 -4 10 -2 13 6 8 8 -5 9 -2 5 9 -3 10 -2 17 4 17 6 0 8 4 5 9 -3
4 3 16 14 26 11 10 17 22 14 27 -3 5 -1 14 4 21 5 7 15 29 21 50 7 20 17 37
22 37 6 0 7 -5 3 -12 -5 -7 -3 -8 5 -3 9 5 9 11 3 17 -11 11 -4 41 8 33 4 -2
5 7 2 20 -2 15 3 31 13 42 17 17 17 18 -6 24 -23 7 -23 7 -2 8 12 1 27 10 33
20 14 28 12 36 -5 21 -21 -17 -24 -11 -13 28 5 18 13 30 19 26 6 -4 6 -11 -2
-20 -10 -12 -9 -13 5 -8 18 7 21 20 5 30 -6 4 -8 17 -3 33 4 14 6 34 6 44 0 9
3 17 8 17 5 0 6 7 3 17 -4 11 -3 14 6 9 8 -6 10 -1 6 17 -4 16 -1 30 8 38 8 7
12 22 9 33 -4 14 -2 17 9 11 12 -7 12 -6 1 7 -9 12 -10 18 -2 23 7 4 10 16 7
26 -3 10 -1 21 4 24 4 3 5 13 2 22 -5 12 -3 14 7 8 8 -5 11 -4 7 2 -3 5 0 35
7 67 13 56 13 56 -8 51 -11 -4 -16 -3 -11 2 6 4 10 15 10 23 1 38 18 110 26
110 6 0 5 9 -1 20 -8 15 -8 20 1 20 7 0 9 10 7 25 -3 14 -1 25 3 25 5 0 9 5 9
11 0 5 -4 8 -8 5 -4 -2 -8 4 -8 14 0 10 4 16 8 14 4 -3 3 7 -2 21 -5 14 -7 24
-2 22 4 -3 8 24 9 59 1 35 -1 64 -6 64 -12 0 -7 45 6 62 7 8 8 19 3 28 -4 7
-5 23 -1 34 5 12 6 27 4 34 -3 6 1 12 9 12 9 0 10 2 1 8 -14 9 -20 102 -8 122
5 9 4 11 -4 6 -8 -6 -10 0 -5 18 4 16 1 33 -7 43 -10 12 -10 15 -1 9 9 -5 11
-1 8 16 -3 13 -5 27 -5 31 -1 5 -5 5 -11 2 -17 -11 -11 7 8 21 14 11 14 13 2
14 -12 0 -15 17 -17 88 -1 48 -5 103 -9 122 -7 34 -7 34 -14 10 -6 -17 -8 -5
-9 42 -1 39 -6 70 -13 74 -6 4 -8 3 -5 -2 3 -6 2 -16 -3 -24 -5 -8 -7 7 -5 38
2 30 -1 50 -6 46 -5 -3 -9 -1 -9 5 0 5 6 11 13 14 9 3 9 7 0 19 -7 8 -10 18
-6 21 3 4 0 7 -7 7 -11 0 -11 3 -2 12 7 7 12 17 12 23 0 5 -5 3 -10 -5 -8 -12
-10 -9 -10 13 0 15 -3 27 -7 27 -5 0 -9 10 -10 23 -7 84 -11 102 -24 99 -8 -1
-3 7 10 19 l25 20 -30 -6 c-20 -5 -25 -4 -15 3 14 10 6 56 -9 47 -11 -7 -22
43 -14 67 4 13 2 18 -4 14 -6 -3 -13 -2 -16 3 -4 5 2 12 11 14 17 4 17 5 0 6
-10 0 -15 6 -12 11 3 6 2 10 -3 10 -6 0 -13 7 -16 16 -3 8 -2 12 4 9 15 -9 12
7 -5 31 -8 12 -12 24 -9 26 9 10 -19 59 -31 54 -6 -2 -12 2 -12 10 0 7 4 11 9
8 4 -3 8 0 8 5 0 6 -7 11 -15 11 -8 0 -15 5 -15 11 0 6 8 8 18 5 9 -3 5 4 -10
17 -16 12 -28 32 -28 42 -1 11 -14 44 -30 74 -16 29 -26 59 -24 66 3 7 0 16
-5 20 -6 3 -9 11 -6 16 4 5 -1 9 -9 9 -9 0 -17 5 -17 10 -1 6 -2 15 -3 20 0 6
-8 15 -16 20 -13 8 -13 10 -1 10 10 0 6 9 -12 28 -15 15 -27 36 -27 45 0 9 -4
17 -10 17 -5 0 -10 9 -10 20 0 11 -4 20 -10 20 -5 0 -10 9 -10 20 0 11 -4 20
-9 20 -5 0 -15 16 -21 35 -6 19 -16 35 -21 35 -6 0 -8 4 -4 10 3 5 -3 18 -15
30 -11 11 -18 20 -14 20 7 0 -44 67 -74 97 -13 13 -20 28 -16 35 4 7 3 8 -4 4
-11 -7 -17 6 -13 27 1 5 -3 6 -9 2 -5 -3 -18 9 -29 27 -11 18 -25 38 -30 45
-6 7 -11 17 -11 23 0 5 -5 10 -11 10 -5 0 -8 4 -5 9 3 4 -3 16 -14 26 -11 10
-17 22 -13 28 3 6 1 7 -6 3 -6 -4 -14 0 -17 8 -3 9 -14 16 -23 16 -14 0 -14 2
-1 10 13 8 12 10 -3 10 -9 0 -16 3 -16 8 1 4 1 14 0 22 -1 13 -2 13 -11 0 -6
-10 -10 -11 -10 -2 0 6 -7 12 -16 12 -8 0 -13 4 -9 10 3 5 -26 41 -64 80 -38
38 -67 70 -64 70 3 0 -8 14 -25 30 -18 17 -30 30 -27 30 3 0 -9 12 -26 28 -17
15 -38 35 -47 45 -9 9 -22 17 -30 17 -7 0 -10 5 -7 10 3 6 1 10 -5 10 -6 0 -9
4 -5 9 3 5 0 13 -6 17 -8 4 -9 3 -5 -4 14 -23 -4 -11 -52 36 -68 65 -89 81
-96 75 -3 -4 -6 1 -6 9 0 9 -9 18 -21 21 -12 3 -18 10 -14 16 4 7 -1 8 -12 4
-10 -3 -15 -2 -10 2 11 13 -23 44 -41 38 -11 -5 -14 -2 -10 8 4 10 -2 15 -20
17 -14 1 -39 17 -55 35 -17 17 -26 25 -22 18 9 -15 -55 25 -66 42 -3 5 -9 9
-12 9 -23 0 -47 13 -47 25 0 7 -6 13 -14 11 -7 -2 -96 79 -197 178 -234 232
-348 326 -564 471 -418 279 -915 467 -1420 537 -60 8 -132 18 -160 21 -100 13
-481 13 -620 0 -697 -66 -1313 -312 -1850 -741 -142 -113 -417 -388 -529 -529
-413 -519 -661 -1121 -738 -1790 -18 -161 -15 -598 6 -760 68 -531 242 -1017
522 -1455 47 -74 173 -286 279 -470 106 -184 317 -551 470 -815 725 -1256
1325 -2306 1325 -2322 0 -7 4 -13 10 -13 5 0 7 -7 4 -15 -3 -8 0 -17 8 -20 8
-3 15 -12 16 -20 1 -8 3 -22 4 -30 1 -8 8 -17 16 -20 8 -3 11 -12 8 -20 -3 -9
1 -18 9 -21 7 -3 11 -12 8 -20 -3 -9 2 -14 13 -14 16 0 17 -2 4 -10 -10 -6
-11 -13 -5 -17 17 -12 36 -63 29 -75 -5 -7 -2 -8 6 -3 10 6 12 3 7 -14 -4 -17
-2 -21 9 -17 8 3 12 2 9 -3 -3 -5 -1 -12 5 -16 5 -3 10 -11 10 -16 0 -6 -5 -7
-11 -4 -5 4 2 -16 16 -44 15 -28 31 -54 36 -56 4 -3 5 -13 2 -22 -4 -9 -2 -14
3 -10 5 3 10 -3 10 -14 0 -10 -5 -19 -11 -19 -5 0 -4 -4 4 -9 8 -5 16 -15 17
-23 10 -49 15 -63 24 -66 7 -3 6 -10 -2 -20 -10 -12 -10 -14 0 -8 7 4 12 2 12
-4 0 -6 4 -9 8 -6 8 5 12 -8 13 -46 0 -10 4 -18 10 -18 5 0 9 -7 9 -16 0 -8 4
-13 9 -9 6 3 9 -3 9 -12 0 -10 3 -27 7 -37 7 -15 5 -18 -6 -12 -8 4 -3 -3 11
-15 17 -15 19 -20 8 -16 -24 9 -23 1 13 -63 17 -30 32 -66 34 -80 1 -13 8 -26
14 -28 6 -2 11 -10 11 -18 0 -9 -5 -13 -12 -9 -7 4 -4 -1 6 -9 11 -9 16 -16
12 -16 -4 0 4 -20 18 -45 15 -25 23 -45 18 -45 -15 0 -9 -32 11 -62 10 -14 19
-37 20 -50 1 -12 11 -31 22 -40 13 -12 15 -17 6 -18 -11 0 -11 -3 -1 -15 7 -8
17 -12 23 -8 5 3 7 1 3 -5 -3 -5 -3 -12 1 -15 5 -2 2 -2 -4 -1 -7 2 -13 -2
-13 -9 0 -8 -4 -6 -10 3 -5 8 -10 11 -10 5 0 -21 18 -37 31 -30 11 6 11 5 2
-5 -9 -10 -9 -18 -1 -34 7 -12 12 -30 13 -41 0 -11 4 -26 9 -34 6 -10 6 -12
-3 -7 -7 5 -16 18 -21 30 -5 12 -9 15 -9 6 0 -8 15 -40 34 -70 24 -39 30 -57
22 -62 -9 -6 -9 -8 1 -8 8 0 10 -5 6 -12 -5 -8 -2 -9 11 -4 16 6 16 4 4 -11
-8 -10 -9 -14 -2 -10 7 5 16 -1 23 -13 6 -12 7 -20 1 -20 -15 0 -6 -45 18 -84
13 -20 18 -36 13 -36 -6 0 -13 6 -16 13 -3 6 -4 3 -3 -8 2 -12 9 -19 19 -17
20 3 33 -14 18 -23 -6 -4 -17 -1 -25 5 -12 10 -15 9 -15 -4 0 -9 5 -16 12 -16
7 0 6 -6 -4 -17 -16 -20 -17 -30 -5 -53 5 -8 -1 -4 -12 9 -23 25 -28 67 -9 73
6 2 8 9 4 16 -5 9 -10 9 -21 -1 -7 -6 -12 -16 -12 -22 1 -5 -7 -9 -18 -7 -16
2 -17 1 -5 -7 8 -5 18 -7 23 -4 5 3 6 -4 2 -16 -3 -11 -2 -21 3 -21 5 0 15
-13 22 -30 7 -16 16 -27 21 -24 5 3 9 -4 9 -14 0 -11 7 -25 15 -32 8 -7 12
-17 8 -23 -3 -5 -1 -7 5 -3 6 3 13 2 17 -4 11 -19 14 -50 4 -56 -5 -3 -8 0 -7
7 2 6 -3 14 -11 17 -8 2 -11 0 -7 -6 3 -6 1 -14 -5 -18 -8 -4 -7 -9 2 -16 10
-6 7 -7 -10 -3 -16 5 -21 4 -17 -4 4 -7 -1 -11 -13 -11 -26 0 -26 -8 -2 -34
11 -12 21 -28 23 -36 2 -8 9 -20 17 -26 12 -10 8 -17 -27 -40 -23 -16 -41 -34
-42 -40 0 -17 27 -37 33 -24 3 6 4 5 3 -2 -2 -7 3 -21 11 -30 10 -11 12 -24 7
-40 -4 -13 -7 -26 -6 -30 3 -12 -13 -9 -26 4 -18 18 -27 1 -11 -19 13 -16 12
-17 -4 -4 -16 13 -18 12 -13 -13 3 -15 1 -24 -5 -21 -5 4 -9 14 -9 23 -1 16
-1 15 -11 -1 -5 -9 -8 -21 -5 -25 2 -4 -2 -15 -9 -25 -11 -15 -13 -16 -19 -2
-3 8 -1 15 4 15 5 0 7 9 5 20 -2 11 -1 20 3 20 4 0 8 10 9 23 2 19 0 18 -15
-8 -9 -16 -15 -36 -14 -42 2 -7 -3 -10 -12 -7 -8 3 -17 1 -21 -5 -4 -7 1 -8
12 -4 10 3 15 3 11 -2 -4 -4 -3 -14 3 -22 8 -9 8 -17 0 -26 -6 -8 -8 -17 -4
-21 4 -4 -1 -4 -11 0 -12 4 -14 9 -6 14 7 4 -1 13 -20 22 -30 15 -33 14 -54
-6 -12 -11 -20 -28 -17 -35 4 -13 5 -13 9 -1 7 21 24 35 45 36 24 2 21 -15 -5
-26 -15 -5 -17 -9 -8 -10 8 -1 4 -5 -10 -9 -15 -5 -31 -3 -39 3 -12 9 -13 7
-8 -7 4 -10 7 -20 7 -23 0 -2 6 -1 14 2 8 3 17 -1 22 -8 4 -7 3 -10 -1 -5 -5
4 -16 0 -25 -8 -10 -9 -22 -15 -28 -13 -6 2 -17 -6 -26 -17 -14 -19 -15 -19
-26 13 -7 17 -17 32 -22 32 -7 0 -7 -4 -1 -12 15 -20 22 -57 12 -64 -5 -3 -7
-10 -4 -15 3 -5 -2 -6 -11 -2 -12 4 -15 3 -10 -6 4 -6 4 -10 -1 -9 -4 1 -19
-2 -32 -6 -16 -6 -26 -4 -32 5 -4 7 -12 10 -16 5 -4 -5 -2 -11 5 -13 6 -3 9
-10 6 -15 -4 -6 -2 -8 4 -4 6 3 13 2 17 -4 3 -5 1 -10 -5 -10 -6 0 -9 -4 -5
-9 3 -5 -2 -16 -11 -25 -8 -9 -12 -20 -9 -26 3 -5 -6 -15 -20 -20 -33 -13 -38
-13 -30 0 8 13 -12 40 -29 40 -6 0 -2 -7 8 -15 18 -13 18 -15 3 -15 -15 0 -16
-4 -7 -20 6 -11 15 -18 21 -15 14 10 11 -11 -5 -24 -15 -13 -32 1 -21 18 3 5
1 12 -5 16 -5 3 -10 0 -10 -7 0 -9 -3 -9 -10 2 -6 10 -10 11 -10 3 0 -7 -5
-13 -11 -13 -5 0 -7 5 -3 12 5 7 3 8 -5 4 -9 -6 -8 -13 5 -27 18 -20 29 -25
19 -9 -3 6 -1 10 4 10 6 0 11 -6 11 -13 0 -22 -21 -36 -49 -33 -14 2 -20 1
-13 -1 27 -10 -1 -45 -34 -42 -44 4 -85 -2 -79 -11 4 -6 12 -7 18 -3 7 4 6 0
-2 -10 -7 -9 -11 -23 -8 -31 8 -21 -13 -33 -55 -31 -21 1 -35 -1 -33 -5 5 -9
-30 -42 -37 -35 -2 3 -5 -1 -5 -9 0 -11 4 -12 19 -3 10 7 18 16 18 22 0 5 5 2
11 -8 6 -10 15 -14 22 -10 7 4 6 0 -2 -10 -14 -18 -36 -24 -26 -7 8 14 -1 13
-25 -2 -17 -11 -22 -10 -29 1 -6 9 -11 10 -15 2 -4 -6 -3 -11 3 -11 6 0 15
-10 22 -21 9 -17 8 -20 -2 -14 -9 6 -11 3 -6 -9 4 -10 7 -20 7 -22 0 -3 5 -2
12 2 7 5 8 3 3 -6 -6 -10 -11 -9 -22 5 -7 11 -13 22 -13 26 0 12 -34 3 -38 -9
-2 -7 -8 -12 -13 -12 -6 0 -7 4 -4 10 4 6 -1 7 -11 3 -11 -4 -13 -8 -6 -11 22
-7 12 -22 -12 -18 -19 3 -23 1 -19 -11 5 -12 3 -14 -7 -8 -9 5 -11 4 -6 -4 4
-6 12 -8 18 -5 7 5 8 2 4 -5 -5 -7 -14 -10 -21 -7 -10 3 -12 -2 -9 -20 3 -14
1 -23 -5 -20 -5 3 -14 -1 -21 -9 -10 -12 -9 -15 4 -15 11 0 14 5 10 12 -4 6
-3 8 4 4 6 -3 13 -2 17 4 4 6 10 8 15 5 5 -3 12 0 16 6 4 7 3 9 -2 6 -6 -3
-16 -2 -24 4 -13 7 -12 9 2 9 9 0 19 8 22 18 3 9 15 23 26 29 16 11 18 10 14
-1 -3 -8 -12 -17 -19 -20 -7 -2 -11 -13 -9 -24 3 -10 -2 -24 -10 -31 -9 -8
-16 -10 -16 -6 0 5 -8 -1 -17 -11 -18 -19 -58 -30 -47 -13 3 5 -1 9 -8 9 -8 0
-6 5 5 11 21 12 22 26 2 26 -8 0 -12 -4 -10 -8 7 -10 -21 -30 -30 -21 -5 4 -5
1 -1 -6 5 -8 -2 -16 -18 -22 -14 -5 -26 -12 -26 -14 0 -3 6 -3 13 0 7 2 24 0
38 -5 21 -9 22 -10 4 -12 -11 -1 -30 -2 -42 -2 -13 -1 -23 -5 -23 -10 0 -5 -8
-3 -17 4 -12 9 -14 9 -7 1 6 -7 9 -24 6 -38 -4 -21 -9 -25 -31 -22 -25 4 -26
2 -23 -29 3 -19 0 -33 -7 -33 -6 0 -8 7 -5 15 4 8 1 15 -6 15 -6 0 -8 5 -5 10
3 6 2 10 -3 10 -11 0 -25 -30 -17 -38 3 -3 5 1 5 8 0 19 13 3 17 -21 3 -17 -1
-19 -19 -13 -13 4 -27 12 -31 18 -6 7 -7 4 -3 -6 3 -10 1 -20 -4 -23 -6 -4
-10 1 -10 9 0 9 -4 16 -10 16 -6 0 -6 -9 -1 -22 12 -34 4 -50 -20 -38 -17 10
-19 7 -19 -21 0 -22 -5 -32 -20 -36 -11 -3 -17 -9 -14 -14 9 -15 -19 -35 -51
-34 -16 0 -30 -4 -31 -10 -2 -27 -29 -64 -52 -70 -21 -5 -23 -8 -11 -16 12 -7
12 -9 -1 -9 -11 -1 -8 -6 9 -20 18 -15 19 -20 7 -20 -9 0 -16 6 -16 13 0 8 -3
8 -9 -2 -5 -8 -15 -12 -22 -9 -8 3 -21 2 -29 -1 -14 -5 -14 -8 2 -23 15 -15
18 -15 18 -3 0 8 5 15 10 15 13 0 13 -11 0 -30 -9 -13 -12 -13 -25 4 -13 18
-14 17 -21 -8 -3 -15 -13 -26 -23 -26 -14 0 -14 2 -1 11 12 8 12 12 2 16 -10
4 -10 8 0 21 10 12 7 12 -14 -2 -30 -20 -37 -32 -14 -23 10 4 14 0 13 -14 -1
-18 -5 -21 -37 -23 -8 -1 -15 -8 -15 -16 0 -8 -9 -15 -20 -15 -11 -1 -19 -6
-18 -13 2 -7 -2 -12 -7 -12 -6 0 -10 5 -10 10 0 16 -17 12 -24 -6 -3 -8 -2
-12 4 -9 6 3 10 -1 10 -9 0 -14 -11 -20 -32 -18 -16 3 -25 -24 -13 -35 9 -8
16 -9 20 -3 3 6 1 10 -4 10 -6 0 -11 4 -11 8 0 4 8 8 19 8 16 0 17 -4 9 -22
-6 -12 -19 -25 -29 -27 -11 -3 -16 -1 -13 5 4 6 -2 8 -16 3 -15 -5 -20 -3 -16
3 3 6 1 14 -5 18 -7 4 -9 3 -5 -4 3 -6 2 -13 -3 -16 -5 -4 -12 -2 -16 4 -4 6
-11 8 -16 4 -6 -3 2 -12 16 -20 15 -8 31 -11 36 -8 5 3 9 2 9 -2 0 -9 -32 -33
-45 -34 -5 0 -3 5 5 11 12 9 11 9 -5 4 -11 -4 -25 -8 -32 -8 -7 0 -10 -4 -7
-8 2 -4 0 -10 -5 -14 -6 -3 -8 -13 -5 -23 5 -14 4 -14 -6 1 -11 18 -13 18 -31
-2 -10 -11 -19 -25 -19 -31 0 -5 -14 -10 -31 -10 -24 0 -30 -4 -25 -15 3 -9
-1 -18 -9 -21 -8 -4 -15 -11 -15 -16 0 -6 6 -5 15 2 12 10 15 10 15 -4 0 -9
-5 -16 -11 -16 -5 0 -7 -4 -4 -10 3 -5 0 -10 -7 -10 -11 0 -10 -2 0 -9 11 -6
10 -10 -3 -15 -14 -5 -16 -2 -13 18 4 22 3 24 -13 15 -20 -10 -26 0 -9 17 7 7
6 11 -5 11 -8 0 -13 -2 -10 -5 7 -7 -14 -42 -26 -42 -6 0 -7 6 -3 13 5 8 2 8
-9 -2 -23 -18 -22 -20 9 -16 18 2 24 -2 20 -11 -3 -7 -1 -16 5 -20 7 -4 6 -10
-1 -19 -8 -10 -7 -15 2 -19 7 -3 1 -3 -14 0 -21 5 -28 2 -28 -10 0 -9 -8 -16
-17 -16 -16 0 -16 2 -3 11 12 8 12 12 2 16 -10 4 -10 8 0 21 10 12 7 12 -14
-2 -30 -20 -37 -32 -14 -23 10 4 14 -1 13 -14 -1 -14 -11 -22 -29 -26 -15 -3
-26 -10 -25 -17 1 -6 -7 -11 -18 -11 -13 0 -19 -6 -17 -17 1 -9 -2 -19 -8 -23
-6 -4 -10 -3 -9 2 3 19 -2 33 -11 33 -6 0 -8 -11 -4 -25 4 -15 2 -25 -5 -26
-21 -3 -26 -4 -40 -13 -11 -7 -11 -10 3 -18 10 -6 20 -7 23 -4 4 3 1 6 -5 6
-7 0 -12 4 -12 8 0 4 8 8 19 8 16 0 17 -4 9 -22 -6 -12 -19 -25 -29 -27 -11
-3 -17 -1 -14 4 4 5 -7 6 -23 3 -17 -4 -32 -1 -36 5 -4 6 -12 9 -17 5 -6 -3 2
-12 16 -20 15 -8 31 -11 36 -8 5 3 9 2 9 -2 0 -9 -32 -33 -45 -34 -5 0 -3 5 5
11 12 9 11 9 -5 4 -11 -4 -25 -8 -32 -8 -7 0 -10 -4 -7 -8 2 -4 0 -10 -5 -14
-6 -3 -7 -13 -4 -23 5 -14 3 -14 -9 2 -12 15 -17 16 -23 6 -6 -9 -4 -11 5 -5
9 5 11 4 6 -3 -4 -7 -14 -12 -22 -12 -8 0 -14 -6 -14 -14 0 -9 -12 -16 -27
-18 -16 -2 -27 -8 -25 -16 1 -7 -5 -15 -13 -18 -8 -4 -15 -11 -15 -16 0 -6 6
-5 15 2 13 10 15 9 15 -9 0 -12 -4 -20 -9 -17 -5 4 -7 -2 -4 -13 3 -11 -2 -21
-12 -25 -14 -5 -16 -2 -13 18 4 22 3 24 -13 15 -19 -10 -25 -1 -11 17 4 5 -2
-1 -13 -13 -22 -24 -41 -31 -29 -10 5 8 2 8 -9 -2 -23 -18 -22 -20 9 -16 18 2
24 -2 20 -11 -3 -7 -1 -16 5 -20 7 -4 6 -10 -1 -19 -8 -10 -7 -15 2 -19 7 -3
1 -3 -14 0 -21 5 -28 2 -28 -10 0 -9 -8 -16 -17 -16 -16 0 -16 2 -3 11 12 8
12 12 2 16 -10 4 -10 8 0 21 10 12 7 12 -14 -2 -30 -20 -37 -32 -14 -23 10 4
14 -1 13 -14 -1 -14 -11 -22 -29 -26 -24 -5 -26 -8 -16 -20 10 -13 14 -12 25
3 7 10 16 14 20 11 3 -4 -2 -14 -13 -22 -22 -16 -34 -19 -34 -7 0 5 -10 8 -22
7 -15 -1 -22 -8 -20 -18 1 -8 -3 -19 -9 -23 -7 -4 -9 -3 -6 3 4 6 1 16 -7 22
-11 9 -12 6 -8 -14 2 -14 0 -26 -7 -26 -21 -3 -26 -4 -40 -13 -11 -7 -11 -10
3 -18 10 -6 20 -7 23 -4 4 3 1 6 -5 6 -7 0 -12 4 -12 8 0 4 8 8 19 8 16 0 17
-4 9 -22 -6 -12 -19 -25 -29 -27 -11 -3 -17 -1 -14 4 4 5 -7 6 -23 3 -17 -4
-32 -1 -36 5 -4 6 -12 9 -17 5 -6 -3 2 -12 16 -20 15 -8 32 -11 37 -8 6 4 9 1
6 -7 -3 -8 -18 -15 -34 -16 -47 -4 -53 -6 -48 -14 2 -4 0 -10 -5 -14 -6 -3 -7
-13 -4 -23 5 -14 3 -14 -9 2 -12 15 -17 16 -23 6 -6 -9 -4 -11 6 -5 8 5 3 -3
-11 -17 -14 -14 -36 -28 -50 -30 -14 -2 -24 -9 -22 -16 1 -7 -5 -15 -13 -18
-8 -4 -15 -11 -15 -16 0 -6 6 -5 15 2 13 10 15 9 15 -9 0 -12 -4 -20 -9 -17
-5 4 -7 -2 -4 -13 3 -11 -2 -21 -12 -25 -14 -5 -16 -2 -13 18 4 22 3 24 -13
15 -11 -5 -19 -6 -19 -2 0 4 -5 2 -12 -5 -15 -15 -31 -16 -22 0 4 7 3 8 -5 4
-16 -10 -2 -29 16 -22 11 4 13 2 10 -9 -4 -8 -2 -17 4 -21 7 -4 6 -10 -1 -19
-8 -10 -7 -15 2 -19 7 -3 3 -3 -10 0 -16 4 -28 0 -38 -13 -9 -10 -12 -12 -8
-4 3 7 0 17 -7 22 -19 12 -29 11 -29 -2 0 -5 5 -7 10 -4 7 4 9 -3 6 -18 -5
-30 3 -41 20 -26 8 7 14 6 20 -2 4 -8 3 -9 -4 -5 -8 5 -11 1 -9 -12 1 -10 95
-118 207 -241 113 -122 206 -226 208 -231 2 -4 -14 -7 -35 -4 -102 10 -3169
13 -7880 7 l-5213 -6 0 -96 c0 -129 -16 -247 -45 -339 -14 -43 -25 -80 -25
-83 0 -4 17 -3 38 1 20 5 2969 10 6552 12 5032 2 6582 0 6810 -9 l295 -13 90
-92 c50 -51 273 -284 495 -518 495 -520 607 -635 1215 -1255 l481 -490 12
-135 c8 -84 12 -354 12 -715 0 -527 4 -631 26 -732 6 -31 5 -33 -20 -33 -52 0
-182 -32 -264 -65 -271 -110 -494 -362 -566 -641 -43 -165 -41 -380 5 -545 91
-331 380 -600 724 -674 107 -23 312 -24 420 -1 366 78 663 375 740 741 12 53
17 126 17 215 0 89 -5 162 -17 215 -72 344 -340 629 -679 725 l-59 17 1 179
c1 98 5 233 8 299 5 107 -2 391 -26 975 -7 177 -6 186 14 215 11 17 113 131
226 254 113 122 226 246 251 274 49 55 59 55 85 4 22 -43 31 -47 84 -40 31 4
54 15 73 35 24 24 37 28 83 28 47 0 54 2 54 20 0 13 7 20 20 20 11 0 20 7 20
15 0 22 9 19 42 -15 17 -18 38 -30 53 -30 20 0 27 6 32 30 3 17 8 30 12 30 4
0 23 16 43 35 23 23 42 33 52 29 9 -3 16 -10 16 -15 0 -5 9 -9 20 -9 11 0 20
4 20 8 0 5 16 17 35 28 19 10 35 23 35 29 0 5 4 4 9 -4 6 -10 13 -10 28 -2 11
5 23 8 26 4 9 -9 20 44 11 58 -5 8 0 10 17 6 34 -8 69 23 69 62 0 26 4 31 24
31 18 0 25 -7 30 -30 8 -41 34 -39 66 5 20 28 32 35 60 35 19 0 45 9 58 19 22
20 30 51 12 51 -19 0 -10 38 11 43 12 3 18 10 14 16 -4 7 5 11 22 11 17 0 33
8 41 20 7 11 21 20 31 20 30 0 51 11 51 26 0 8 5 14 10 14 6 0 10 9 10 20 0
13 7 20 20 20 11 0 20 -7 20 -15 0 -11 11 -15 36 -15 l36 0 -4 48 -3 47 45 3
c67 4 90 11 90 27 0 19 16 19 24 0 13 -35 52 0 46 43 0 8 4 20 10 27 8 10 8
19 0 35 -12 22 -12 22 30 72 11 14 30 18 88 18 l73 0 95 94 c52 52 94 100 94
105 0 15 82 14 114 0 32 -15 76 10 76 44 0 29 10 43 38 51 30 10 28 40 -3 54
-34 15 -32 37 5 54 23 10 30 19 30 41 0 15 9 37 20 49 11 12 20 32 20 44 0 13
7 27 16 32 15 8 15 10 0 15 -9 4 -16 14 -16 22 0 12 8 16 28 13 23 -3 27 1 27
22 0 20 -6 26 -27 28 -24 3 -28 8 -28 37 0 19 -5 37 -10 40 -6 4 -8 14 -6 23
10 30 -8 40 -84 46 -41 3 -91 7 -110 10 -19 2 -78 7 -130 11 -52 4 -103 7
-113 8 -10 1 -16 8 -15 16 3 12 77 14 488 17 2165 16 3737 21 7375 22 2863 1
4289 5 4502 13 335 12 370 9 397 -34 12 -18 14 -236 14 -1272 0 -687 -3 -1301
-6 -1364 l-7 -114 -95 -32 c-510 -172 -843 -637 -843 -1180 0 -470 255 -894
663 -1104 182 -93 348 -134 550 -134 461 0 869 255 1080 673 91 180 132 358
132 565 0 574 -376 1065 -922 1204 l-75 19 3 1373 c3 1356 3 1374 23 1394 19
19 35 20 382 23 199 2 381 0 404 -3 40 -6 45 -10 85 -78 64 -110 113 -174 203
-263 288 -283 709 -394 1105 -289 129 34 314 127 417 210 222 178 376 439 423
715 17 96 17 284 0 380 -61 364 -294 676 -625 840 -336 167 -694 167 -1030 0
-230 -114 -400 -282 -516 -512 -67 -134 -119 -317 -119 -423 0 -23 -3 -55 -6
-71 l-5 -29 -307 3 c-341 3 -365 5 -393 33 -19 19 -19 61 -19 3704 0 3282 2
3686 16 3699 13 13 56 15 322 11 169 -3 499 -8 734 -11 l427 -6 36 -76 c283
-596 1004 -839 1586 -535 264 138 470 378 562 656 96 285 74 623 -56 882 -262
524 -859 773 -1414 589 -334 -111 -615 -392 -726 -727 -25 -75 -53 -205 -59
-276 l-3 -34 -660 0 c-363 0 -679 3 -703 7 -82 15 -75 -199 -68 2149 10 3532
24 5983 35 6112 6 66 14 149 17 185 5 55 3 69 -13 89 -20 25 -78 39 -164 40
-60 1 -135 28 -154 54 -18 25 -19 102 -5 226 38 346 38 356 -18 367 -28 5
-4676 11 -4750 6z m4276 -450 c44 -25 66 -123 42 -187 -21 -56 85 -53 -1990
-57 -2127 -3 -1966 -8 -1984 63 -13 53 1 126 27 144 30 19 760 34 2217 44
1458 11 1658 10 1688 -7z m274 -735 c9 -5 19 -16 23 -25 11 -30 8 -1978 -4
-2000 -21 -40 -62 -44 -348 -33 -409 16 -2333 24 -3198 13 -519 -6 -777 -6
-792 1 -12 5 -27 23 -33 40 -14 41 -14 1907 0 1959 6 21 18 42 28 48 21 12
4299 9 4324 -3z m-1317 -2435 c1382 -8 1289 -3 1319 -67 11 -25 14 -180 17
-877 l4 -847 -22 -23 -23 -22 -1382 2 c-2370 5 -2910 10 -2928 28 -13 13 -15
125 -18 903 -2 735 0 891 11 903 15 14 354 14 3022 0z m-13550 -1242 c3 5 14
10 23 9 14 0 14 -2 -3 -10 -17 -8 -16 -9 5 -4 19 5 263 9 303 6 5 -1 5 -5 2
-11 -3 -5 1 -10 10 -10 9 0 14 4 11 8 -3 5 1 9 9 9 8 0 15 -5 15 -10 0 -5 7
-6 16 -3 9 4 22 2 28 -2 6 -5 24 -12 39 -16 22 -5 27 -4 22 6 -4 7 0 5 8 -5
10 -12 17 -15 22 -7 5 8 10 7 18 -4 11 -14 49 -26 90 -29 9 -1 17 -4 17 -8 0
-3 17 -9 38 -13 21 -3 47 -14 58 -24 11 -10 25 -17 32 -14 6 2 12 -1 12 -8 0
-6 5 -8 10 -5 6 3 10 1 10 -5 0 -6 5 -8 10 -5 6 3 13 -1 16 -9 3 -9 14 -16 24
-16 9 0 24 -8 33 -18 32 -35 105 -188 135 -283 58 -180 67 -244 67 -474 0
-183 -3 -223 -23 -313 -72 -319 -197 -547 -427 -778 -231 -232 -482 -367 -800
-431 -196 -39 -597 -17 -707 38 -21 11 -38 16 -39 12 0 -5 -5 3 -11 17 -6 14
-10 29 -9 34 1 5 -5 6 -13 3 -10 -4 -13 -1 -9 9 3 7 1 14 -5 14 -5 0 -25 25
-43 55 -19 30 -39 55 -46 55 -7 0 -10 7 -6 17 4 10 2 14 -5 9 -6 -3 -13 -2
-17 4 -3 5 -1 10 5 10 7 0 5 7 -4 16 -9 8 -19 13 -23 11 -5 -3 -9 5 -9 18 -1
13 -7 29 -13 37 -31 36 -61 91 -55 100 4 6 2 8 -4 4 -10 -6 -21 15 -27 57 -2
12 -11 45 -21 72 -27 78 -27 79 -25 98 1 9 -3 17 -10 17 -7 0 -9 10 -5 30 3
17 1 30 -4 30 -5 0 -9 27 -9 60 1 33 -3 66 -9 73 -5 6 -10 39 -10 72 -1 33 -3
84 -5 112 -2 29 0 50 4 47 7 -4 14 51 10 78 0 4 4 19 9 33 7 18 7 33 0 46 -8
15 -8 19 2 17 8 -2 12 5 11 17 -1 10 3 27 8 36 6 12 5 19 -4 22 -7 3 -5 6 5 6
12 1 15 6 11 17 -3 9 -2 19 3 23 13 9 37 54 26 47 -6 -3 -13 1 -16 10 -8 21 2
33 13 15 6 -10 10 -9 14 4 4 9 3 13 -3 10 -6 -3 -10 -1 -10 4 0 6 5 11 11 11
8 0 7 6 -2 17 -10 11 -10 14 -1 9 7 -4 12 -1 12 8 0 27 1 31 16 47 8 9 16 26
17 37 0 11 5 18 9 16 4 -3 8 4 8 15 0 12 5 21 10 21 6 0 10 7 10 15 0 8 4 15
9 15 10 0 27 39 23 53 -1 4 1 7 6 7 4 0 16 16 26 35 11 19 23 35 28 35 4 0 8
6 8 13 0 6 12 26 26 42 14 17 34 40 45 53 10 12 19 25 19 28 0 12 43 44 52 38
4 -3 7 -2 6 3 -4 11 43 73 55 73 6 0 25 16 44 35 20 20 39 32 46 29 7 -4 9 -4
5 1 -8 8 41 47 80 64 12 6 22 13 22 16 0 4 -6 3 -12 0 -7 -4 -4 1 6 9 11 9 26
16 33 16 7 0 13 5 13 11 0 5 4 7 10 4 12 -7 38 6 39 20 1 6 9 10 19 10 9 0 25
9 35 20 10 11 16 14 12 8 -3 -7 -1 -13 4 -13 6 0 11 5 11 10 0 6 7 10 16 10 8
0 13 4 10 8 -2 4 7 9 22 10 15 1 28 6 30 12 2 5 9 7 16 4 7 -3 19 2 26 10 7 9
16 13 22 10 5 -3 15 0 23 6 8 7 15 9 15 5 0 -4 6 -2 14 4 8 7 24 14 36 16 12
2 31 7 43 11 18 6 20 5 10 -8 -11 -12 -8 -14 18 -10 20 3 29 9 25 18 -4 9 2
14 17 14 18 0 19 -2 7 -10 -12 -8 -11 -10 8 -10 14 0 22 6 23 18 0 10 3 12 6
5 2 -7 14 -13 25 -13 14 0 18 5 14 15 -4 13 -2 13 14 5 12 -7 21 -7 25 0z
m8188 -790 c3 -12 0 -20 -8 -20 -8 0 -11 8 -8 20 3 11 7 20 8 20 1 0 5 -9 8
-20z m-26 -24 c-1 -19 -5 -32 -10 -29 -4 3 -6 11 -3 19 3 8 0 14 -7 15 -8 0
-7 2 2 6 11 5 11 7 0 14 -11 7 -11 9 2 9 12 0 16 -9 16 -34z m-50 -108 c-3 -7
-5 -2 -5 12 0 14 2 19 5 13 2 -7 2 -19 0 -25z m-171 -124 c-3 -9 -6 -18 -6
-20 0 -2 -4 -4 -9 -4 -7 0 -8 17 -2 38 1 1 6 2 12 2 6 0 8 -7 5 -16z m4674 -6
c1020 1 1928 5 2017 8 180 7 214 1 231 -44 6 -15 13 -90 16 -167 8 -198 9
-3027 0 -3048 -3 -10 -21 -25 -38 -35 -28 -15 -93 -18 -681 -23 -371 -3 -670
-2 -697 3 -85 17 -78 -67 -80 939 -1 492 0 1011 1 1154 l3 259 -27 24 c-25 21
-34 22 -94 17 -86 -7 -423 -13 -827 -14 -312 -1 -321 -2 -343 -22 -19 -18 -22
-28 -17 -68 4 -25 7 -540 9 -1144 l2 -1099 -22 -17 c-33 -28 -110 -30 -839
-32 -695 -2 -713 -1 -715 39 0 9 0 748 0 1641 0 1309 3 1626 13 1633 7 5 63 6
123 2 61 -4 945 -6 1965 -6z m-4720 -33 c0 -8 -2 -15 -4 -15 -2 0 -6 7 -10 15
-3 8 -1 15 4 15 6 0 10 -7 10 -15z m-97 -102 c-4 -10 -9 -11 -19 -2 -18 15
-18 15 5 15 11 0 17 -5 14 -13z m-63 -9 c0 -2 -11 -15 -25 -30 -13 -14 -22
-30 -19 -35 3 -5 0 -9 -5 -9 -6 0 -9 10 -7 23 3 12 5 25 5 30 1 4 8 7 17 7 8
0 13 4 10 8 -3 5 1 9 9 9 8 0 15 -2 15 -3z m14 -33 c3 -5 -1 -12 -10 -15 -20
-8 -29 -1 -19 13 8 13 22 14 29 2z m-119 -111 c3 -5 1 -10 -4 -10 -6 0 -11 5
-11 10 0 6 2 10 4 10 3 0 8 -4 11 -10z m-3738 -22 c-3 -8 -6 -5 -6 6 -1 11 2
17 5 13 3 -3 4 -12 1 -19z m3547 -116 c3 -5 -1 -9 -9 -9 -8 0 -12 4 -9 9 3 4
7 8 9 8 2 0 6 -4 9 -8z m23 -14 c-3 -8 -6 -5 -6 6 -1 11 2 17 5 13 3 -3 4 -12
1 -19z m-187 -135 c0 -14 -2 -15 -9 -4 -7 11 -9 11 -14 0 -4 -10 -6 -9 -6 4
-1 9 6 17 14 17 8 0 15 -8 15 -17z m33 2 c-3 -9 -8 -14 -10 -11 -3 3 -2 9 2
15 9 16 15 13 8 -4z m-63 -65 c-20 -13 -33 -13 -25 0 3 6 14 10 23 10 15 0 15
-2 2 -10z m-130 -80 c0 -6 -6 -10 -12 -11 -7 0 -4 -4 7 -9 13 -6 15 -9 5 -9
-13 -1 -13 -2 0 -11 12 -8 10 -9 -7 -7 -31 4 -36 12 -24 35 7 13 7 23 -2 32
-10 10 -8 10 11 1 12 -6 22 -16 22 -21z m-73 -97 c-14 -14 -19 -15 -29 -4 -11
10 -10 11 3 6 10 -4 20 -2 24 4 3 6 9 11 13 11 3 0 -1 -8 -11 -17z m-104 -58
c4 -8 2 -17 -3 -20 -6 -4 -10 3 -10 14 0 25 6 27 13 6z m43 -10 c-1 -8 -6 -18
-11 -22 -4 -4 -5 -2 -1 5 4 6 2 12 -4 12 -6 0 -8 5 -5 10 9 15 24 12 21 -5z
m-3065 -88 c-10 -9 -11 -8 -5 6 3 10 9 15 12 12 3 -3 0 -11 -7 -18z m2867
-101 c-7 -8 -15 -12 -17 -11 -5 6 10 25 20 25 5 0 4 -6 -3 -14z m-88 -50 c0
-2 -8 -10 -17 -17 -16 -13 -17 -12 -4 4 13 16 21 21 21 13z m-99 -93 c12 -14
12 -16 0 -8 -11 6 -13 4 -8 -8 4 -11 2 -14 -7 -11 -8 3 -12 14 -9 25 6 23 7
23 24 2z m6186 -24 c125 0 235 -5 245 -10 9 -5 21 -24 27 -41 6 -22 10 -371
12 -998 0 -531 1 -971 0 -978 -2 -31 -65 -40 -337 -47 -230 -6 -276 -4 -307 9
-23 9 -38 23 -42 38 -3 13 -4 465 -3 1005 3 1120 -7 1013 96 1024 31 3 63 5
69 3 7 -2 115 -4 240 -5z m-6367 -149 c0 -5 -2 -10 -4 -10 -3 0 -8 5 -11 10
-3 6 -1 10 4 10 6 0 11 -4 11 -10z m-120 -82 c0 -13 -23 -5 -28 10 -2 7 2 10
12 6 9 -3 16 -11 16 -16z m-140 -168 c0 -5 -8 -10 -17 -10 -15 0 -16 2 -3 10
19 12 20 12 20 0z m-120 -80 c0 -5 -5 -10 -11 -10 -5 0 -7 5 -4 10 3 6 8 10
11 10 2 0 4 -4 4 -10z m-87 -60 c-3 -11 -7 -20 -8 -20 -1 0 -5 9 -8 20 -3 12
0 20 8 20 8 0 11 -8 8 -20z m23 -26 c1 -9 0 -13 -4 -10 -3 4 -7 14 -8 22 -1 9
0 13 4 10 3 -4 7 -14 8 -22z m-49 -56 c-3 -8 -6 -5 -6 6 -1 11 2 17 5 13 3 -3
4 -12 1 -19z m-81 -53 c1 -8 -4 -11 -12 -8 -12 4 -18 -6 -16 -28 0 -3 -8 -10
-18 -17 -17 -10 -18 -9 -13 6 10 26 46 72 52 67 3 -3 6 -12 7 -20z m-230 -197
c3 -4 -5 -19 -19 -33 -16 -18 -27 -23 -31 -16 -4 6 -1 11 7 11 9 0 13 9 12 24
-3 23 14 30 31 14z m-1989 -234 c-3 -3 -12 -4 -19 -1 -8 3 -5 6 6 6 11 1 17
-2 13 -5z m-130 -286 c-3 -8 -6 -5 -6 6 -1 11 2 17 5 13 3 -3 4 -12 1 -19z
m1623 18 c0 -11 -19 -15 -25 -6 -3 5 1 10 9 10 9 0 16 -2 16 -4z m-1649 -49
c-10 -9 -11 -8 -5 6 3 10 9 15 12 12 3 -3 0 -11 -7 -18z m1513 -8 c-3 -5 -10
-7 -15 -3 -5 3 -7 10 -3 15 3 5 10 7 15 3 5 -3 7 -10 3 -15z m6 -23 c0 -3 -4
-8 -10 -11 -5 -3 -10 -1 -10 4 0 6 5 11 10 11 6 0 10 -2 10 -4z m-40 -40 c-7
-7 -13 -7 -20 0 -6 6 -3 10 10 10 13 0 16 -4 10 -10z m-46 -32 c3 -8 2 -12 -4
-9 -6 3 -10 10 -10 16 0 14 7 11 14 -7z m-20 -40 c8 -21 -7 -17 -21 6 -11 16
-10 18 1 14 8 -3 17 -12 20 -20z m-259 -182 c6 -4 11 -13 13 -20 2 -10 -2 -10
-18 0 -20 13 -27 28 -12 28 4 0 12 -4 17 -8z m62 -18 c-3 -3 -12 -4 -19 -1 -8
3 -5 6 6 6 11 1 17 -2 13 -5z m-1443 -109 c-9 -14 -18 -25 -21 -25 -5 0 5 18
20 38 17 22 18 13 1 -13z m20 -20 c-4 -8 -11 -15 -16 -15 -6 0 -5 6 2 15 7 8
14 15 16 15 2 0 1 -7 -2 -15z m-53 -48 c-10 -9 -11 -8 -5 6 3 10 9 15 12 12 3
-3 0 -11 -7 -18z m1269 16 c-8 -3 -21 -10 -28 -16 -9 -7 -11 -6 -6 7 3 9 16
16 28 15 14 0 16 -2 6 -6z m-40 -33 c8 -5 11 -10 5 -10 -5 0 -17 5 -25 10 -8
5 -10 10 -5 10 6 0 17 -5 25 -10z m-55 -60 c3 -5 1 -10 -4 -10 -6 0 -11 5 -11
10 0 6 2 10 4 10 3 0 8 -4 11 -10z m-1195 -94 c0 -2 -7 -7 -16 -10 -8 -3 -12
-2 -9 4 6 10 25 14 25 6z m-60 -46 c-6 -11 -13 -20 -16 -20 -2 0 0 9 6 20 6
11 13 20 16 20 2 0 0 -9 -6 -20z m1046 -9 c-8 -12 -46 -21 -46 -11 0 5 10 11
23 13 12 2 23 5 25 6 2 0 1 -3 -2 -8z m-1186 -370 c0 -4 -7 -8 -15 -8 -8 0
-15 6 -15 13 0 8 6 11 15 8 8 -4 15 -9 15 -13z m11847 -20 c13 -6 30 -26 40
-44 15 -30 16 -181 8 -2152 -5 -1166 -9 -2812 -10 -3659 l-1 -1538 -25 -22
-26 -23 -2634 -6 c-3577 -9 -5346 -9 -7139 3 -1450 9 -1654 12 -1925 26 -66 3
-246 8 -400 10 -352 5 -370 6 -370 22 0 18 93 25 290 23 87 -1 194 5 255 14
58 8 161 17 230 19 69 3 146 11 173 19 26 8 47 11 47 6 0 -18 38 -8 43 11 4
15 14 20 41 20 20 0 36 5 36 10 0 6 6 10 14 10 8 0 16 5 18 11 2 6 26 13 54
14 56 4 104 20 117 38 7 9 10 9 14 0 6 -15 43 -18 43 -3 0 5 18 13 41 16 23 4
46 15 52 25 7 11 21 19 33 19 11 0 24 3 28 8 4 4 22 8 39 9 65 4 97 15 97 33
0 10 -7 20 -15 24 -20 7 -19 36 1 36 9 0 23 -8 30 -17 13 -17 13 -17 14 0 0 9
6 17 14 17 8 0 16 7 20 15 3 8 15 15 26 15 17 0 20 6 20 40 0 23 8 52 17 66
13 20 14 27 4 34 -10 6 -11 12 -1 30 9 17 18 21 40 17 29 -6 80 11 80 27 0 5
-7 17 -16 27 -11 12 -13 27 -9 53 6 31 11 36 36 36 16 0 29 -4 29 -10 0 -16
27 -11 34 6 3 9 6 26 6 40 0 13 9 29 20 36 11 7 20 18 20 25 0 7 4 13 10 13 6
0 7 18 4 43 -7 46 -4 50 76 133 24 25 26 44 5 44 -9 0 -15 9 -15 25 0 17 5 25
18 25 22 0 120 92 104 98 -16 5 -15 22 1 22 17 0 36 46 30 70 -4 17 0 20 25
20 17 0 34 5 37 10 3 6 26 10 51 10 41 0 45 2 42 23 -2 14 -11 23 -25 25 -31
5 -29 28 7 64 20 20 30 39 30 60 0 25 3 29 20 25 34 -9 80 14 80 40 0 12 -4
25 -10 28 -15 9 -12 42 5 49 8 3 15 15 15 26 0 12 11 33 25 48 14 15 25 35 25
44 0 10 6 18 13 18 8 0 7 4 -3 10 -13 8 -12 10 2 10 10 0 23 -9 30 -20 18 -28
58 -27 58 3 0 12 5 29 10 37 9 13 11 13 19 1 8 -12 11 -12 24 1 13 12 13 18 1
39 -16 28 -18 79 -4 79 6 0 10 -4 10 -10 0 -5 7 -10 15 -10 10 0 15 10 15 30
0 17 5 30 10 30 6 0 10 -4 10 -10 0 -5 9 -19 20 -30 19 -19 22 -20 37 -4 15
15 15 17 0 26 -22 12 -21 24 3 45 11 10 20 22 20 28 0 16 37 35 55 29 9 -4 15
0 15 10 0 11 13 18 39 22 34 5 40 11 43 33 2 19 8 25 21 23 30 -5 47 17 47 62
0 36 6 47 45 84 44 41 56 62 35 62 -20 0 -9 23 31 63 36 36 42 39 50 24 14
-24 38 -21 48 6 5 12 19 30 30 39 26 22 27 38 4 39 -16 1 -16 2 1 6 16 4 18
12 14 55 -5 50 -5 50 55 109 32 32 67 59 76 59 21 0 38 27 47 76 7 37 37 73
62 74 6 0 12 6 12 14 0 8 11 23 25 34 30 24 31 32 4 32 -11 0 -18 4 -14 10 3
5 13 6 21 3 12 -4 15 0 12 18 -2 14 6 32 20 46 27 27 38 29 46 7 9 -24 68 39
85 91 17 48 41 84 59 85 12 0 17 18 14 52 -1 11 7 18 26 20 22 2 27 8 27 32 1
18 11 40 28 57 32 33 35 59 7 59 -16 0 -20 7 -20 30 0 21 5 30 16 30 8 0 29
14 46 30 16 17 38 30 49 30 10 0 19 7 19 15 0 8 -4 15 -10 15 -5 0 -10 7 -10
15 0 11 11 15 40 15 36 0 40 3 40 25 0 16 20 43 63 86 l62 62 0 61 c0 59 1 61
28 64 32 4 39 41 8 49 -17 4 -14 11 24 49 33 33 52 44 75 44 26 0 30 4 30 27
0 25 1 25 19 9 17 -15 19 -15 25 -1 3 9 6 27 6 40 0 15 17 41 45 68 25 25 45
50 45 56 0 6 52 63 115 128 92 93 113 119 104 130 -7 7 -9 16 -5 20 3 3 6 1 6
-5 0 -18 27 -14 34 5 5 11 1 22 -10 30 -16 11 -15 14 7 32 13 11 32 20 42 21
10 0 17 8 17 20 0 13 7 20 19 20 27 0 30 7 35 81 3 51 9 67 25 78 25 16 27 36
6 45 -27 10 -16 47 25 87 26 25 40 48 40 64 0 14 -4 25 -9 25 -23 0 -19 34 6
61 25 27 32 29 73 24 39 -5 49 -2 73 20 31 29 34 43 12 51 -19 8 -21 84 -2 84
18 0 67 48 67 65 0 8 -9 15 -20 15 -13 0 -20 7 -20 20 0 13 7 20 20 20 14 0
20 7 20 23 0 12 -9 30 -20 40 -28 24 -25 45 8 49 26 3 27 5 24 50 -3 36 0 49
12 54 11 4 13 14 9 35 -7 37 20 72 51 64 12 -3 15 -2 9 1 -17 7 -17 52 0 67 7
7 26 19 42 27 33 17 43 42 44 120 2 65 8 78 47 89 19 5 30 15 32 29 2 12 8 22
13 22 12 0 12 47 -1 55 -15 9 19 55 41 55 21 0 27 38 8 57 -11 11 7 36 33 46
10 4 9 8 -2 17 -11 9 -12 13 -2 17 6 2 12 22 12 42 0 41 36 91 65 91 11 0 15
10 15 35 0 28 4 35 20 35 11 0 20 6 20 14 0 8 6 16 14 19 9 4 17 32 22 79 9
72 10 73 36 70 l27 -3 -1 83 c0 72 3 84 21 99 25 20 27 44 5 53 -12 5 -15 16
-12 49 5 48 -14 87 -44 87 -15 0 -18 6 -16 28 2 22 -1 28 -22 31 -14 1 -28 8
-32 14 -4 7 -14 8 -30 1 -34 -15 -62 -11 -66 8 -2 13 7 18 45 24 26 3 53 11
60 16 6 5 23 6 37 2 22 -5 26 -3 26 14 0 31 -14 35 -129 38 -58 2 -110 4 -116
4 -5 0 -16 4 -24 9 -12 8 -9 15 14 43 15 18 35 38 44 43 10 7 1117 12 3236 16
3709 6 3622 7 3652 -10z m-11065 -23 c-14 -14 -44 -20 -36 -7 3 5 9 7 14 4 5
-3 11 -1 15 5 3 5 9 10 13 10 3 0 1 -5 -6 -12z m-827 -16 c-3 -3 -11 0 -18 7
-9 10 -8 11 6 5 10 -3 15 -9 12 -12z m-40 -52 c3 -5 1 -10 -4 -10 -6 0 -11 5
-11 10 0 6 2 10 4 10 3 0 8 -4 11 -10z m726 -34 c-9 -11 -9 -15 1 -19 8 -4 7
-6 -4 -6 -21 -1 -23 10 -6 27 17 17 23 15 9 -2z m-24 -21 c13 -28 11 -30 -20
-13 -20 10 -21 10 -8 -5 7 -10 9 -17 3 -17 -15 0 -21 22 -10 43 12 23 21 21
35 -8z m-719 -69 c-7 -8 -15 -12 -17 -11 -5 6 10 25 20 25 5 0 4 -6 -3 -14z
m637 -35 c3 -6 -5 -15 -17 -21 -21 -10 -21 -10 -6 3 10 8 15 17 11 20 -3 4 -4
7 0 7 3 0 8 -4 12 -9z m-568 -7 c-3 -3 -12 -4 -19 -1 -8 3 -5 6 6 6 11 1 17
-2 13 -5z m498 -62 c-3 -3 -11 0 -18 7 -9 10 -8 11 6 5 10 -3 15 -9 12 -12z
m-517 -177 c-3 -3 -9 2 -12 12 -6 14 -5 15 5 6 7 -7 10 -15 7 -18z m-70 -16
c-2 -6 -7 -10 -11 -10 -4 1 -15 1 -24 2 -15 0 -15 2 2 9 28 12 37 12 33 -1z
m-37 -42 c-6 -8 -8 -17 -4 -20 3 -4 2 -7 -4 -7 -16 0 -24 28 -10 34 22 9 29 6
18 -7z m350 -4 c13 -16 12 -17 -3 -4 -10 7 -18 15 -18 17 0 8 8 3 21 -13z
m-227 -4 c14 11 16 11 16 -4 0 -10 -3 -15 -7 -12 -6 7 -32 -21 -33 -35 0 -4 8
-5 18 -2 14 5 14 4 2 -4 -10 -8 -18 -8 -27 -1 -7 6 -18 7 -24 3 -9 -5 -7 -10
7 -15 17 -7 17 -8 1 -8 -10 -1 -15 -6 -12 -11 4 -6 11 -7 17 -4 6 4 8 2 5 -4
-4 -5 -16 -8 -27 -5 -16 4 -18 8 -9 19 6 8 8 14 4 14 -5 0 -1 8 7 18 9 9 19
28 23 41 5 17 9 20 15 10 7 -10 11 -10 24 0z m75 -38 c-6 -2 -16 2 -22 8 -7 7
-15 7 -26 -2 -14 -10 -14 -10 -3 4 10 14 17 15 37 5 13 -6 20 -13 14 -15z
m-232 4 c0 -8 -4 -12 -9 -9 -5 3 -6 10 -3 15 9 13 12 11 12 -6z m253 -26 c0
-5 5 -9 11 -9 5 0 7 5 3 11 -4 8 0 8 15 0 17 -10 19 -14 9 -25 -9 -9 -17 -11
-25 -5 -7 7 -13 5 -16 -3 -4 -8 -6 -7 -6 5 -1 9 -3 17 -5 17 -2 0 -11 3 -20 6
-9 3 -16 1 -16 -5 0 -6 8 -11 18 -12 10 0 12 -3 4 -6 -6 -2 -10 -8 -7 -13 3
-4 -1 -10 -9 -13 -17 -7 -24 9 -20 43 1 14 3 25 3 26 6 5 61 -11 61 -17z
m-150 -70 c0 -5 -4 -8 -9 -6 -5 1 -16 -7 -24 -18 -17 -23 -32 -15 -23 12 6 18
56 29 56 12z m123 -9 c-6 -22 -24 -22 -31 0 -3 7 0 10 7 6 6 -4 11 -2 11 3 0
6 4 11 9 11 5 0 7 -9 4 -20z m-43 1 c0 -6 -4 -12 -8 -15 -5 -3 -9 1 -9 9 0 8
4 15 9 15 4 0 8 -4 8 -9z m-38 -65 c7 4 8 2 4 -4 -11 -18 -26 -14 -25 6 0 10
3 12 6 4 2 -6 10 -9 15 -6z m-3531 -2973 c13 -16 12 -17 -3 -4 -10 7 -18 15
-18 17 0 8 8 3 21 -13z m13 -108 c-4 -8 -11 -12 -16 -9 -6 4 -5 10 3 15 19 12
19 11 13 -6z m-39 -45 c3 -6 -1 -7 -9 -4 -18 7 -21 14 -7 14 6 0 13 -4 16 -10z
m41 -102 c4 -7 4 -10 -1 -6 -4 4 -14 3 -22 -3 -13 -11 -19 2 -6 14 10 11 21 8
29 -5z m-48 -62 c-7 -8 -15 -12 -17 -11 -5 6 10 25 20 25 5 0 4 -6 -3 -14z
m-148 -110 c0 -3 -4 -8 -10 -11 -5 -3 -10 -1 -10 4 0 6 5 11 10 11 6 0 10 -2
10 -4z m-100 -102 c0 -2 -7 -4 -15 -4 -8 0 -15 4 -15 10 0 5 7 7 15 4 8 -4 15
-8 15 -10z m-76 -61 c4 -10 4 -14 0 -10 -4 4 -13 2 -21 -4 -16 -14 -17 -3 0
16 15 18 14 18 21 -2z m-327 -257 c0 -8 -3 -15 -6 -14 -19 2 -24 -4 -11 -12
13 -8 12 -10 -2 -10 -21 0 -22 4 -6 30 15 24 25 26 25 6z m-22 -56 c3 -5 1
-10 -4 -10 -6 0 -11 5 -11 10 0 6 2 10 4 10 3 0 8 -4 11 -10z m-54 -20 c5 0 9
-4 9 -8 0 -5 -10 -8 -22 -6 -13 1 -27 3 -31 3 -5 1 -5 6 -2 12 4 6 14 8 22 5
8 -3 19 -6 24 -6z m49 -6 c0 -8 -19 -13 -24 -6 -3 5 1 9 9 9 8 0 15 -2 15 -3z
m-107 -71 c-7 -2 -19 -2 -25 0 -7 3 -2 5 12 5 14 0 19 -2 13 -5z m-80 -38 c4
-8 3 -16 -1 -19 -4 -3 -9 4 -9 15 -2 23 3 25 10 4z m-163 -138 c0 -8 -7 -14
-15 -14 -11 0 -12 4 -4 14 6 7 13 13 15 13 2 0 4 -6 4 -13z m35 -46 c3 -5 2
-12 -3 -15 -5 -3 -9 1 -9 9 0 17 3 19 12 6z m-59 -28 c-7 -7 -26 7 -26 19 0 6
6 6 15 -2 9 -7 13 -15 11 -17z m-41 -11 c-3 -3 -11 0 -18 7 -9 10 -8 11 6 5
10 -3 15 -9 12 -12z m-5 -33 c0 -5 -4 -9 -8 -9 -5 0 -9 7 -9 15 0 8 4 12 9 9
4 -3 8 -9 8 -15z m-30 -27 c14 -7 17 -10 8 -8 -10 3 -20 1 -23 -4 -11 -18 -20
-10 -22 17 0 14 2 22 5 17 4 -5 18 -15 32 -22z m-94 -55 c-1 -7 -11 -23 -22
-35 -19 -20 -20 -20 -21 -2 -1 11 3 23 9 26 7 5 8 2 3 -6 -5 -8 -4 -11 3 -6 6
4 9 13 5 21 -3 9 1 15 10 15 8 0 14 -6 13 -13z m-86 -92 c-7 -8 -17 -15 -23
-15 -6 0 -2 7 9 15 25 19 30 19 14 0z m-13 -50 c0 -8 -4 -12 -9 -9 -5 3 -6 10
-3 15 9 13 12 11 12 -6z m-73 -10 c4 -13 2 -14 -14 -5 -23 13 -26 20 -6 20 8
0 16 -7 20 -15z m-4 -34 c13 -13 12 -14 -4 -8 -10 4 -22 7 -27 7 -5 0 -9 4 -9
8 0 14 25 10 40 -7z m-23 -26 c0 -8 -4 -12 -9 -9 -4 3 -8 9 -8 15 0 5 4 9 8 9
5 0 9 -7 9 -15z m-36 -18 c-6 -8 -8 -17 -4 -20 3 -4 3 -7 0 -7 -3 0 -11 9 -17
20 -9 17 -8 20 11 20 17 0 19 -3 10 -13z m-108 -147 c10 -12 9 -12 -5 -1 -15
11 -18 11 -18 0 0 -11 -2 -11 -10 1 -5 8 -10 10 -10 4 0 -7 -7 -14 -15 -18
-19 -7 -19 -1 0 17 17 18 40 16 58 -3z m-103 -42 c0 -6 -6 -5 -15 2 -8 7 -15
14 -15 16 0 2 7 1 15 -2 8 -4 15 -11 15 -16z m-110 -138 c0 -5 -4 -10 -10 -10
-5 0 -10 5 -10 10 0 6 5 10 10 10 6 0 10 -4 10 -10z m-80 -25 c0 -14 -4 -25
-10 -25 -8 0 -8 23 -1 48 4 12 11 -3 11 -23z m24 -11 c3 -8 2 -12 -4 -9 -6 3
-10 10 -10 16 0 14 7 11 14 -7z m-64 -34 c0 -5 -2 -10 -4 -10 -3 0 -8 5 -11
10 -3 6 -1 10 4 10 6 0 11 -4 11 -10z m30 -12 c0 -18 -2 -20 -9 -8 -6 8 -7 18
-5 22 9 14 14 9 14 -14z m-35 -10 c5 4 5 1 1 -6 -6 -10 -11 -10 -22 -1 -8 6
-14 17 -14 23 0 6 7 3 14 -6 7 -10 17 -14 21 -10z m-63 -17 c-1 -7 3 -19 9
-27 10 -12 9 -13 -6 -8 -14 6 -16 4 -10 -6 6 -9 4 -11 -4 -6 -7 5 -10 14 -7
22 3 8 0 14 -7 15 -8 0 -7 2 2 6 11 5 11 7 0 15 -11 7 -9 8 6 5 11 -2 19 -9
17 -16z m-79 -88 c2 -13 0 -26 -6 -30 -6 -3 -7 -1 -3 5 4 7 2 12 -5 12 -7 0
-9 3 -6 7 4 3 2 11 -3 18 -7 8 -5 12 4 12 8 0 16 -11 19 -24z m-66 -108 c5 -4
2 -5 -6 0 -11 6 -13 4 -8 -11 7 -18 7 -18 -8 0 -8 11 -15 15 -15 9 0 -6 -7
-13 -15 -17 -19 -7 -19 -1 0 17 15 16 39 17 52 2z m-97 -47 c0 -6 -6 -5 -15 2
-8 7 -15 14 -15 16 0 2 7 1 15 -2 8 -4 15 -11 15 -16z m-110 -138 c0 -5 -4
-10 -10 -10 -5 0 -10 5 -10 10 0 6 5 10 10 10 6 0 10 -4 10 -10z m-80 -25 c0
-14 -4 -25 -10 -25 -8 0 -8 23 -1 48 4 12 11 -3 11 -23z m24 -11 c3 -8 2 -12
-4 -9 -6 3 -10 10 -10 16 0 14 7 11 14 -7z m-64 -34 c0 -5 -7 -7 -15 -4 -11 5
-13 2 -9 -10 3 -9 11 -13 17 -9 6 4 7 1 2 -6 -6 -10 -11 -10 -22 2 -9 8 -12
20 -9 26 9 14 36 15 36 1z m30 -12 c0 -18 -2 -20 -9 -8 -6 8 -7 18 -5 22 9 14
14 9 14 -14z m-98 -23 c0 -5 4 -18 10 -29 8 -14 7 -17 -3 -11 -9 6 -10 3 -5
-10 5 -15 4 -16 -9 -5 -9 7 -14 19 -11 27 3 7 0 13 -7 14 -8 0 -7 2 2 6 11 5
11 7 0 15 -11 7 -10 8 4 6 10 -2 18 -7 19 -13z m-79 -92 c2 -13 0 -26 -6 -30
-6 -3 -7 -1 -3 5 4 7 2 12 -5 12 -7 0 -9 3 -6 7 4 3 2 11 -3 18 -7 8 -5 12 4
12 8 0 16 -11 19 -24z m-66 -108 c5 -4 2 -5 -6 0 -11 6 -13 4 -8 -8 9 -23 0
-21 -13 2 -7 15 -7 19 5 17 8 -1 18 -6 22 -11z m-97 -47 c0 -6 -6 -5 -15 2 -8
7 -15 14 -15 16 0 2 7 1 15 -2 8 -4 15 -11 15 -16z m35 -18 c-27 -12 -43 -12
-25 0 8 5 22 9 30 9 10 0 8 -3 -5 -9z m-145 -120 c0 -5 -4 -10 -10 -10 -5 0
-10 5 -10 10 0 6 5 10 10 10 6 0 10 -4 10 -10z m-80 -25 c0 -14 -4 -25 -10
-25 -8 0 -8 23 -1 48 4 12 11 -3 11 -23z m30 -16 c0 -6 -4 -7 -10 -4 -5 3 -10
11 -10 16 0 6 5 7 10 4 6 -3 10 -11 10 -16z m-70 -29 c0 -5 -7 -7 -15 -4 -11
5 -13 2 -9 -10 3 -9 11 -13 17 -9 6 4 7 1 2 -6 -6 -10 -11 -10 -22 2 -9 8 -12
20 -9 26 9 14 36 15 36 1z m30 -12 c0 -18 -2 -20 -9 -8 -6 8 -7 18 -5 22 9 14
14 9 14 -14z m-95 -50 c1 -30 -2 -35 -12 -26 -8 6 -12 17 -9 25 3 7 0 13 -7
14 -8 0 -7 2 2 6 11 5 11 7 0 15 -11 7 -9 8 6 6 16 -3 20 -11 20 -40z m-82
-65 c2 -13 0 -26 -6 -30 -6 -3 -7 -1 -3 5 4 7 2 12 -5 12 -7 0 -9 3 -6 7 4 3
2 11 -3 18 -7 8 -5 12 4 12 8 0 16 -11 19 -24z m5775 -1154 c-23 -15 -79 -22
-90 -11 -12 12 20 32 67 42 33 7 49 -15 23 -31z"/>
<path d="M48750 50235 c0 -7 30 -13 34 -7 3 4 -4 9 -15 9 -10 1 -19 0 -19 -2z"/>
<path d="M48650 50216 c0 -2 8 -10 18 -17 15 -13 16 -12 3 4 -13 16 -21 21
-21 13z"/>
<path d="M48779 50203 c-13 -17 -13 -17 6 -3 11 8 22 16 24 17 2 2 0 3 -6 3
-6 0 -17 -8 -24 -17z"/>
<path d="M48637 50125 c-6 -15 10 -32 20 -21 4 3 1 6 -5 6 -6 0 -9 7 -6 15 4
8 4 15 1 15 -3 0 -7 -7 -10 -15z"/>
<path d="M48595 50091 c-3 -5 -1 -12 5 -16 5 -3 10 1 10 9 0 18 -6 21 -15 7z"/>
<path d="M48620 50086 c0 -8 4 -17 9 -20 5 -4 7 3 4 14 -6 23 -13 26 -13 6z"/>
<path d="M44361 49994 c0 -11 3 -14 6 -6 3 7 2 16 -1 19 -3 4 -6 -2 -5 -13z"/>
<path d="M48520 49975 c0 -10 -5 -13 -12 -9 -7 4 -8 3 -4 -4 4 -7 11 -12 16
-12 12 0 20 29 10 35 -6 4 -10 -1 -10 -10z"/>
<path d="M48430 49940 c0 -5 5 -10 11 -10 5 0 7 5 4 10 -3 6 -8 10 -11 10 -2
0 -4 -4 -4 -10z"/>
<path d="M48335 49911 c-3 -5 0 -13 6 -17 7 -4 9 -3 5 4 -3 5 0 13 6 15 9 4
10 6 1 6 -6 1 -14 -3 -18 -8z"/>
<path d="M48362 49871 c-10 -6 -7 -10 12 -13 16 -3 25 -1 23 5 -5 15 -20 18
-35 8z"/>
<path d="M48361 49826 c-23 -13 -23 -13 -2 -19 14 -3 21 0 21 10 0 8 5 11 10
8 6 -3 10 -1 10 4 0 14 -10 13 -39 -3z"/>
<path d="M48267 49793 c-10 -9 -9 -23 1 -23 5 0 9 7 9 15 0 17 -1 18 -10 8z"/>
<path d="M48059 49623 c-13 -16 -12 -17 4 -4 16 13 21 21 13 21 -2 0 -10 -8
-17 -17z"/>
<path d="M48040 49532 c0 -12 3 -12 15 -2 8 7 15 13 15 15 0 1 -7 2 -15 2 -8
0 -15 -7 -15 -15z"/>
<path d="M47935 49450 c-3 -5 -1 -10 4 -10 6 0 11 5 11 10 0 6 -2 10 -4 10 -3
0 -8 -4 -11 -10z"/>
<path d="M47857 49444 c-13 -13 5 -24 39 -24 24 0 33 -4 28 -12 -4 -7 -3 -8 4
-4 17 10 15 19 -9 34 -12 8 -18 9 -14 3 4 -7 -4 -11 -20 -11 -15 0 -24 4 -20
10 7 11 2 13 -8 4z"/>
<path d="M47877 49379 c5 -19 3 -21 -20 -15 -25 6 -46 -8 -32 -22 4 -4 9 -2
12 4 2 6 17 8 33 6 33 -5 42 16 16 37 -12 10 -13 8 -9 -10z"/>
<path d="M47860 49330 c-13 -8 -12 -10 3 -10 9 0 17 5 17 10 0 12 -1 12 -20 0z"/>
<path d="M47687 49294 c-8 -8 3 -34 15 -34 7 0 6 5 -1 13 -6 8 -8 17 -4 20 3
4 4 7 1 7 -2 0 -7 -3 -11 -6z"/>
<path d="M47565 49110 c3 -5 8 -10 11 -10 2 0 4 5 4 10 0 6 -5 10 -11 10 -5 0
-7 -4 -4 -10z"/>
<path d="M47397 49039 c7 -7 15 -10 18 -7 3 3 -2 9 -12 12 -14 6 -15 5 -6 -5z"/>
<path d="M47320 48910 c-8 -5 -10 -10 -5 -10 6 0 17 5 25 10 8 5 11 10 5 10
-5 0 -17 -5 -25 -10z"/>
<path d="M47206 48775 c4 -8 8 -15 10 -15 2 0 4 7 4 15 0 8 -4 15 -10 15 -5 0
-7 -7 -4 -15z"/>
<path d="M47043 48653 c-7 -3 -13 -9 -13 -14 0 -6 5 -7 12 -3 6 4 17 -1 25
-11 11 -16 13 -16 13 -3 0 19 -21 37 -37 31z"/>
<path d="M47036 48614 c-11 -8 -16 -14 -10 -14 13 0 39 18 34 24 -3 2 -14 -2
-24 -10z"/>
<path d="M47007 48583 c-11 -11 -8 -20 7 -20 8 0 12 6 9 14 -6 15 -7 15 -16 6z"/>
<path d="M44444 48525 c-9 -21 -2 -26 13 -10 8 9 9 16 3 20 -6 3 -13 -1 -16
-10z"/>
<path d="M46866 48462 c-3 -5 1 -9 9 -9 8 0 12 4 9 9 -3 4 -7 8 -9 8 -2 0 -6
-4 -9 -8z"/>
<path d="M46641 48283 c-5 -10 -13 -17 -18 -15 -4 2 -9 -4 -11 -12 -2 -9 1
-16 7 -16 6 0 8 -6 6 -13 -3 -6 4 -18 15 -24 16 -11 18 -10 14 2 -4 8 -10 15
-16 15 -5 0 -7 4 -3 9 3 5 1 12 -5 16 -5 3 -10 11 -10 16 0 6 4 8 9 4 6 -3 15
4 21 15 13 24 5 27 -9 3z"/>
<path d="M46565 48231 c-3 -5 -2 -12 3 -15 5 -3 9 1 9 9 0 17 -3 19 -12 6z"/>
<path d="M46525 48210 c3 -5 8 -10 11 -10 2 0 4 5 4 10 0 6 -5 10 -11 10 -5 0
-7 -4 -4 -10z"/>
<path d="M46595 48200 c-3 -5 -1 -10 4 -10 6 0 11 5 11 10 0 6 -2 10 -4 10 -3
0 -8 -4 -11 -10z"/>
<path d="M46512 48130 c7 -10 14 -18 15 -16 6 6 -9 36 -18 36 -5 0 -4 -9 3
-20z"/>
<path d="M46344 48031 c4 -5 0 -11 -6 -14 -7 -3 -3 -4 9 -4 17 1 19 4 11 14
-12 15 -22 18 -14 4z"/>
<path d="M46386 48023 c-6 -14 -5 -15 5 -6 7 7 10 15 7 18 -3 3 -9 -2 -12 -12z"/>
<path d="M46268 48003 c6 -2 18 -2 25 0 6 3 1 5 -13 5 -14 0 -19 -2 -12 -5z"/>
<path d="M46168 47853 c6 -2 10 -9 6 -14 -3 -5 0 -9 5 -9 6 0 11 7 11 15 0 8
-8 15 -17 14 -11 0 -13 -3 -5 -6z"/>
<path d="M46140 47789 c0 -5 4 -8 9 -5 5 4 12 0 14 -6 3 -8 6 -6 6 5 1 9 -6
17 -14 17 -8 0 -15 -5 -15 -11z"/>
<path d="M46020 47681 c0 -5 7 -11 15 -15 8 -3 15 -1 15 3 0 5 -7 11 -15 15
-8 3 -15 1 -15 -3z"/>
<path d="M45900 47599 c0 -5 5 -7 10 -4 6 3 10 8 10 11 0 2 -4 4 -10 4 -5 0
-10 -5 -10 -11z"/>
<path d="M45855 47580 c-3 -6 1 -7 9 -4 18 7 21 14 7 14 -6 0 -13 -4 -16 -10z"/>
<path d="M45845 47552 c4 -4 12 -7 18 -7 7 -1 11 -5 10 -11 -1 -5 7 -16 19
-23 11 -7 17 -8 14 -3 -3 6 0 13 6 16 11 5 11 7 0 12 -6 3 -9 11 -5 17 5 8 2
8 -9 0 -8 -7 -18 -10 -22 -6 -3 4 -14 8 -22 9 -9 1 -13 -1 -9 -4z"/>
<path d="M45760 47470 c-9 -6 -10 -10 -3 -10 6 0 15 5 18 10 8 12 4 12 -15 0z"/>
<path d="M44075 47309 c-4 -6 -3 -15 3 -21 6 -6 11 -4 15 6 7 18 -9 31 -18 15z"/>
<path d="M45505 47271 c-3 -5 -2 -12 3 -15 5 -3 9 1 9 9 0 17 -3 19 -12 6z"/>
<path d="M45450 47180 c-9 -6 -10 -10 -3 -10 6 0 15 5 18 10 8 12 4 12 -15 0z"/>
<path d="M45335 47070 c3 -5 12 -7 20 -3 21 7 19 13 -6 13 -11 0 -18 -4 -14
-10z"/>
<path d="M45285 47040 c-3 -6 1 -7 9 -4 18 7 21 14 7 14 -6 0 -13 -4 -16 -10z"/>
<path d="M45203 47015 c0 -8 4 -15 9 -15 4 0 8 4 8 9 0 6 -4 12 -8 15 -5 3 -9
-1 -9 -9z"/>
<path d="M45187 46989 c7 -7 15 -10 18 -7 3 3 -2 9 -12 12 -14 6 -15 5 -6 -5z"/>
<path d="M45160 46926 c0 -2 9 -6 20 -9 11 -3 18 -1 14 4 -5 9 -34 13 -34 5z"/>
<path d="M45211 46904 c0 -11 3 -14 6 -6 3 7 2 16 -1 19 -3 4 -6 -2 -5 -13z"/>
<path d="M43890 46901 c0 -6 4 -13 10 -16 6 -3 7 1 4 9 -7 18 -14 21 -14 7z"/>
<path d="M43860 46875 c-7 -8 -11 -15 -9 -16 31 -6 40 -6 44 1 3 4 -1 13 -9
19 -10 9 -16 8 -26 -4z"/>
<path d="M43866 46833 c-4 -5 -13 -8 -18 -8 -17 0 -21 -22 -6 -28 8 -2 19 6
25 19 12 25 11 29 -1 17z"/>
<path d="M45068 46823 c7 -3 16 -2 19 1 4 3 -2 6 -13 5 -11 0 -14 -3 -6 -6z"/>
<path d="M44865 46700 c3 -5 8 -10 11 -10 2 0 4 5 4 10 0 6 -5 10 -11 10 -5 0
-7 -4 -4 -10z"/>
<path d="M44827 46618 c-4 -15 -14 -28 -22 -30 -10 -2 -12 -8 -6 -17 7 -11 13
-6 26 18 9 18 14 38 12 44 -2 7 -7 0 -10 -15z"/>
<path d="M43750 46579 c-7 -11 -9 -24 -5 -27 7 -7 35 25 35 40 0 16 -19 8 -30
-13z"/>
<path d="M43730 46530 c0 -5 5 -10 10 -10 6 0 10 5 10 10 0 6 -4 10 -10 10 -5
0 -10 -4 -10 -10z"/>
<path d="M44719 46528 c-6 -19 -6 -39 0 -42 4 -3 8 6 9 20 1 13 0 24 -3 24 -3
0 -5 -1 -6 -2z"/>
<path d="M44625 46450 c-3 -6 1 -7 9 -4 18 7 21 14 7 14 -6 0 -13 -4 -16 -10z"/>
<path d="M44628 46423 c7 -3 16 -2 19 1 4 3 -2 6 -13 5 -11 0 -14 -3 -6 -6z"/>
<path d="M44515 46315 c0 -13 3 -21 8 -18 4 2 7 10 7 18 0 8 -3 16 -7 18 -5 3
-8 -5 -8 -18z"/>
<path d="M44428 46253 c7 -3 16 -2 19 1 4 3 -2 6 -13 5 -11 0 -14 -3 -6 -6z"/>
<path d="M43601 46213 c1 -4 1 -15 0 -23 -1 -13 -2 -13 -11 0 -8 13 -10 12
-10 -2 0 -24 17 -23 30 1 7 14 7 22 0 26 -6 4 -10 3 -9 -2z"/>
<path d="M44360 46206 c0 -2 7 -7 16 -10 8 -3 12 -2 9 4 -6 10 -25 14 -25 6z"/>
<path d="M44190 46071 c0 -7 -4 -9 -10 -6 -5 3 -10 1 -10 -4 0 -6 4 -11 9 -11
13 0 25 20 17 27 -3 4 -6 1 -6 -6z"/>
<path d="M43986 45857 c-16 -12 -16 -13 2 -13 10 0 19 6 19 13 0 7 -1 13 -2
13 -1 0 -9 -6 -19 -13z"/>
<path d="M43603 45783 c4 -3 1 -13 -6 -22 -11 -14 -10 -14 5 -2 16 12 16 31 1
31 -4 0 -3 -3 0 -7z"/>
<path d="M43871 45763 c-2 -20 11 -43 20 -37 5 3 9 0 9 -5 0 -18 29 -12 40 8
15 29 12 33 -13 17 -23 -16 -40 -11 -50 14 -3 8 -6 10 -6 3z"/>
<path d="M43570 45726 c7 -7 13 -7 20 0 6 6 3 10 -10 10 -13 0 -16 -4 -10 -10z"/>
<path d="M43846 45718 c3 -5 10 -6 15 -3 13 9 11 12 -6 12 -8 0 -12 -4 -9 -9z"/>
<path d="M43806 45693 c5 -5 12 -12 16 -18 4 -6 8 -2 8 8 0 9 -7 17 -17 17 -9
0 -12 -3 -7 -7z"/>
<path d="M43641 45674 c0 -11 3 -14 6 -6 3 7 2 16 -1 19 -3 4 -6 -2 -5 -13z"/>
<path d="M43572 45605 c-7 -8 -9 -15 -4 -15 5 0 15 7 22 15 16 19 -1 19 -18 0z"/>
<path d="M43425 45590 c3 -5 8 -10 11 -10 2 0 4 5 4 10 0 6 -5 10 -11 10 -5 0
-7 -4 -4 -10z"/>
<path d="M43700 45588 c0 -9 -6 -19 -12 -21 -10 -4 -10 -6 0 -6 14 -1 28 26
18 36 -3 4 -6 -1 -6 -9z"/>
<path d="M43628 45573 c7 -3 16 -2 19 1 4 3 -2 6 -13 5 -11 0 -14 -3 -6 -6z"/>
<path d="M43520 45540 c-23 -7 -23 -8 -3 -9 12 -1 25 4 28 9 3 6 5 10 3 9 -2
-1 -14 -5 -28 -9z"/>
<path d="M24975 43616 c-16 -23 -16 -35 -7 -99 16 -104 22 -612 23 -2075 1
-1180 3 -1294 18 -1312 29 -36 316 -65 388 -40 l29 11 0 1547 c-1 1744 -10
1574 80 1588 26 4 316 5 643 2 675 -6 663 -5 674 -74 4 -22 7 -336 8 -699 1
-363 4 -1033 8 -1490 8 -896 6 -878 60 -893 14 -4 110 -7 213 -7 154 0 190 3
201 15 11 12 12 93 6 455 -4 242 -10 1027 -13 1744 -4 1057 -7 1307 -18 1317
-10 10 -209 14 -988 18 -536 3 -1050 9 -1141 12 l-167 6 -17 -26z"/>
<path d="M39897 42613 c-4 -3 -7 -11 -7 -17 0 -6 5 -5 12 2 6 6 9 14 7 17 -3
3 -9 2 -12 -2z"/>
<path d="M39906 42241 c-4 -5 -2 -12 3 -15 5 -4 12 -2 15 3 4 5 2 12 -3 15 -5
4 -12 2 -15 -3z"/>
<path d="M39900 42090 c-8 -5 -12 -12 -9 -15 4 -3 12 1 19 10 14 17 11 19 -10
5z"/>
<path d="M39746 41998 c3 -5 10 -6 15 -3 13 9 11 12 -6 12 -8 0 -12 -4 -9 -9z"/>
<path d="M39765 41950 c3 -5 11 -10 16 -10 6 0 7 5 4 10 -3 6 -11 10 -16 10
-6 0 -7 -4 -4 -10z"/>
<path d="M39620 41871 c0 -5 -3 -16 -6 -25 -3 -9 -1 -16 6 -16 6 0 8 5 4 12
-5 8 0 9 14 6 27 -7 27 -7 2 15 -11 9 -20 13 -20 8z"/>
<path d="M39471 41701 c-11 -7 -11 -10 0 -14 10 -4 9 -6 -3 -6 -17 -1 -36 -21
-20 -21 17 0 56 37 46 43 -6 3 -16 2 -23 -2z"/>
<path d="M39455 41650 c-3 -5 1 -10 10 -10 9 0 13 5 10 10 -3 6 -8 10 -10 10
-2 0 -7 -4 -10 -10z"/>
<path d="M39288 41613 c7 -3 16 -2 19 1 4 3 -2 6 -13 5 -11 0 -14 -3 -6 -6z"/>
<path d="M39331 41577 c2 -1 13 -9 24 -17 19 -14 19 -14 6 3 -7 9 -18 17 -24
17 -6 0 -8 -1 -6 -3z"/>
<path d="M39270 41532 l-25 -14 28 7 c17 3 26 2 23 -4 -4 -5 3 -7 16 -3 16 4
18 7 8 10 -8 3 -17 8 -20 12 -3 3 -16 0 -30 -8z"/>
<path d="M38556 40911 c-7 -10 -1 -15 17 -12 12 2 8 -17 -5 -22 -10 -4 -10 -6
-1 -6 20 -2 26 20 10 36 -10 10 -17 11 -21 4z"/>
<path d="M38535 40840 c-3 -5 -1 -10 4 -10 6 0 11 5 11 10 0 6 -2 10 -4 10 -3
0 -8 -4 -11 -10z"/>
<path d="M38381 40703 c7 -10 15 -20 16 -22 2 -2 3 5 3 17 0 14 -6 22 -16 22
-14 0 -15 -3 -3 -17z"/>
<path d="M37945 40349 c-4 -6 -5 -12 -2 -15 2 -3 7 2 10 11 7 17 1 20 -8 4z"/>
<path d="M37806 40166 c3 -8 12 -12 21 -9 12 5 12 7 1 14 -20 13 -28 11 -22
-5z"/>
<path d="M37217 39719 c7 -7 15 -10 18 -7 3 3 -2 9 -12 12 -14 6 -15 5 -6 -5z"/>
<path d="M37266 39676 c3 -8 12 -12 21 -9 12 5 12 7 1 14 -20 13 -28 11 -22
-5z"/>
<path d="M36677 39229 c7 -7 15 -10 18 -7 3 3 -2 9 -12 12 -14 6 -15 5 -6 -5z"/>
<path d="M36726 39186 c3 -8 12 -12 21 -9 12 5 12 7 1 14 -20 13 -28 11 -22
-5z"/>
<path d="M41600 36524 c0 -3 7 -12 15 -21 13 -12 18 -13 31 -2 14 12 14 14 -3
20 -23 9 -43 11 -43 3z"/>
<path d="M41500 36470 c20 -13 33 -13 25 0 -3 6 -14 10 -23 10 -15 0 -15 -2
-2 -10z"/>
<path d="M40721 36208 c-11 -29 -8 -32 24 -24 30 8 32 21 5 36 -17 9 -22 7
-29 -12z"/>
<path d="M35265 35501 c-43 -26 -66 -54 -127 -153 -29 -47 -71 -112 -92 -143
-46 -68 -190 -348 -216 -420 -19 -53 -95 -222 -175 -390 -43 -91 -74 -174
-142 -370 -37 -108 -99 -258 -166 -395 -97 -203 -191 -485 -180 -541 3 -15 16
-38 30 -51 22 -21 36 -23 139 -26 107 -4 119 -2 168 22 64 31 80 53 169 225
78 151 118 212 176 264 35 31 47 36 112 41 41 4 237 8 436 9 350 2 362 1 390
-18 17 -13 50 -65 88 -141 171 -340 193 -364 368 -391 160 -24 228 -5 226 61
-1 93 -81 300 -230 601 -43 89 -79 169 -79 178 0 10 -6 30 -14 45 -7 15 -30
72 -50 127 -21 55 -70 168 -110 250 -108 221 -143 299 -151 335 -4 17 -20 59
-35 93 -15 34 -33 82 -39 107 -15 57 -81 228 -137 350 -23 52 -56 130 -74 174
-45 113 -57 135 -93 156 -44 27 -150 28 -192 1z m118 -774 c15 -29 27 -59 27
-68 0 -16 26 -95 103 -311 19 -54 55 -133 80 -175 55 -95 86 -187 70 -211 -16
-26 -68 -31 -363 -31 -202 -1 -279 2 -288 11 -29 29 -3 147 59 270 40 79 73
173 114 323 19 69 42 140 51 157 26 52 65 88 94 88 22 0 31 -9 53 -53z"/>
<path d="M24657 35503 c-49 -8 -89 -60 -124 -163 -48 -138 -127 -332 -163
-398 -17 -31 -42 -82 -55 -112 -13 -30 -44 -104 -70 -165 -26 -60 -69 -168
-96 -239 -28 -70 -77 -183 -111 -250 -67 -134 -128 -279 -193 -461 -57 -159
-90 -242 -164 -410 -74 -170 -78 -205 -27 -257 23 -24 47 -37 74 -41 58 -10
176 8 215 32 63 39 180 198 212 289 38 107 79 189 108 216 l30 28 426 -5 c238
-3 444 -10 466 -16 53 -13 97 -65 132 -155 15 -39 35 -83 45 -98 11 -15 39
-70 64 -122 49 -104 97 -156 142 -156 15 0 82 7 150 16 110 15 125 19 139 41
15 23 15 31 -2 101 -9 42 -34 122 -55 177 -21 55 -45 123 -53 151 -25 84 -86
246 -112 294 -13 25 -35 74 -48 110 -14 36 -46 121 -72 190 -26 69 -57 159
-69 200 -25 85 -82 223 -132 320 -60 117 -111 242 -159 395 -137 437 -135 431
-200 464 -40 20 -66 24 -159 27 -61 1 -124 0 -139 -3z m163 -735 c11 -18 38
-84 61 -148 23 -63 55 -149 72 -190 16 -41 37 -95 47 -120 9 -25 30 -68 47
-95 35 -59 74 -170 75 -215 2 -55 -14 -61 -183 -70 -85 -5 -219 -9 -299 -10
-184 0 -195 5 -185 87 10 85 60 235 177 533 43 111 132 260 155 260 7 0 22
-14 33 -32z"/>
<path d="M27683 35499 c-222 -10 -233 -14 -304 -113 -29 -39 -86 -107 -128
-151 -83 -88 -142 -156 -241 -280 -143 -179 -229 -265 -265 -265 -46 1 -62
109 -71 483 -5 197 -11 283 -20 295 -11 15 -39 18 -221 23 -189 5 -209 4 -224
-12 -14 -15 -15 -132 -13 -1198 3 -1288 1 -1229 59 -1251 13 -5 90 -12 172
-16 170 -7 230 2 238 39 2 12 6 207 9 432 5 505 13 550 91 531 42 -11 98 -73
205 -230 52 -77 111 -158 130 -180 81 -94 214 -279 256 -357 16 -29 58 -83 94
-120 96 -100 98 -100 515 -100 55 0 161 0 235 0 119 0 327 22 351 37 20 12 62
112 95 227 42 145 88 244 127 272 27 19 45 20 489 23 349 3 466 1 484 -8 25
-14 66 -98 85 -175 16 -65 81 -206 115 -251 66 -86 164 -124 318 -124 113 0
144 11 165 54 12 25 11 37 -8 102 -20 68 -99 213 -141 259 -22 23 -71 137
-105 240 -27 83 -107 275 -136 325 -76 132 -191 401 -205 478 -4 20 -19 65
-34 99 -16 34 -35 88 -44 120 -9 32 -32 90 -50 128 -59 119 -107 242 -192 488
-18 53 -44 111 -56 127 -35 48 -92 64 -196 56 -109 -9 -161 -32 -199 -90 -28
-42 -103 -208 -161 -356 -17 -41 -72 -160 -122 -265 -51 -104 -104 -221 -118
-260 -13 -38 -48 -137 -77 -220 -88 -248 -118 -326 -210 -535 -34 -76 -64
-167 -130 -389 -87 -288 -130 -327 -226 -203 -29 37 -102 114 -161 171 -60 58
-132 134 -161 170 -28 36 -83 102 -120 146 -38 44 -97 120 -131 169 -33 49
-77 111 -96 138 -19 27 -62 87 -95 134 -33 48 -83 112 -111 143 -69 76 -84
100 -84 134 0 48 26 82 124 161 53 43 122 113 159 159 36 45 99 112 140 150
42 37 118 120 170 185 91 114 123 146 239 244 32 27 65 67 78 93 19 40 21 50
10 76 -15 36 -38 49 -82 47 -18 0 -115 -5 -215 -9z m1610 -697 c44 -49 172
-374 217 -551 11 -46 25 -92 30 -101 15 -28 41 -166 34 -184 -11 -29 -76 -36
-351 -36 l-272 0 -20 26 c-13 17 -21 41 -21 65 0 63 48 196 124 344 40 77 87
172 103 210 17 39 45 104 63 145 47 108 60 119 93 82z"/>
<path d="M22927 35482 c-15 -17 -17 -53 -17 -378 -1 -567 -17 -1332 -30 -1399
-16 -80 -54 -147 -114 -202 -66 -59 -95 -73 -170 -80 -78 -7 -158 16 -184 54
-71 104 -125 136 -231 134 -85 -1 -109 -9 -128 -44 -38 -72 0 -243 74 -336 68
-84 158 -166 220 -198 92 -49 262 -76 397 -63 122 11 180 28 249 71 129 81
213 178 268 308 55 131 59 201 70 1141 5 470 12 880 15 910 9 94 9 94 -213 98
-175 3 -190 2 -206 -16z"/>
<path d="M30707 35486 c-16 -16 -17 -76 -19 -849 -2 -458 -3 -993 -3 -1189 l0
-356 23 -25 c27 -29 103 -45 217 -47 119 -2 125 -1 154 28 l28 28 -5 375 c-3
206 -2 397 2 422 15 99 110 108 353 35 20 -6 40 -22 54 -46 53 -89 150 -286
192 -388 54 -132 128 -282 168 -340 39 -58 117 -105 198 -120 82 -16 285 -18
313 -3 34 18 18 95 -55 255 -79 174 -133 262 -286 472 -43 59 -65 139 -56 209
8 63 31 95 97 132 27 16 85 61 128 100 144 130 188 271 176 561 -10 265 -37
351 -144 464 -37 39 -80 88 -95 108 -43 58 -149 121 -237 141 -136 31 -240 37
-715 44 -438 6 -472 5 -488 -11z m1013 -402 c110 -28 117 -34 181 -160 36 -70
42 -92 46 -165 8 -123 -7 -180 -68 -262 -92 -122 -210 -162 -541 -183 -89 -6
-116 -4 -152 10 -74 28 -74 32 -77 409 -2 309 -1 328 17 348 10 12 28 25 39
30 11 4 119 6 240 3 186 -5 235 -10 315 -30z"/>
<path d="M32565 35493 c-16 -3 -36 -9 -42 -15 -14 -11 -15 -113 -4 -247 6 -73
7 -76 41 -95 33 -20 53 -21 290 -23 292 -2 351 -7 382 -33 l23 -18 -3 -514
c-1 -282 -5 -727 -8 -988 -4 -386 -3 -480 8 -500 20 -37 89 -51 226 -48 109 3
115 4 137 30 l23 26 6 484 c4 265 8 716 9 1000 3 582 -2 546 80 566 24 6 153
11 293 12 357 1 367 5 385 170 13 113 7 153 -28 180 -25 20 -33 20 -907 19
-484 -1 -894 -4 -911 -6z"/>
<path d="M51260 31670 c-131 -9 -366 -61 -520 -115 -41 -15 -100 -35 -130 -45
-30 -10 -104 -38 -165 -63 -60 -24 -128 -50 -150 -57 -64 -20 -185 -84 -250
-132 -33 -24 -127 -89 -210 -143 -82 -55 -179 -126 -215 -159 -134 -122 -315
-303 -365 -366 -64 -79 -239 -334 -282 -410 -45 -80 -191 -395 -214 -463 -11
-32 -35 -95 -53 -140 -88 -214 -131 -622 -108 -1020 13 -215 33 -366 57 -424
8 -19 15 -43 15 -52 0 -9 25 -70 56 -136 31 -66 79 -172 106 -235 101 -236
143 -309 304 -525 158 -214 235 -300 404 -453 163 -148 306 -255 467 -348 51
-30 95 -54 98 -54 2 0 40 -19 82 -43 232 -127 437 -187 953 -278 87 -15 502
-22 640 -11 321 27 793 135 970 222 167 82 474 281 595 385 235 203 493 479
589 631 28 45 82 128 120 185 104 155 133 231 227 584 74 283 107 449 120 610
17 227 2 442 -47 665 -53 238 -89 369 -160 592 -46 145 -121 301 -177 371 -19
23 -54 76 -78 117 -95 164 -183 275 -369 463 -163 166 -201 199 -315 275 -71
47 -167 110 -213 141 -143 97 -220 132 -522 238 -297 104 -502 163 -640 183
-102 14 -466 20 -620 10z m605 -935 c151 -28 310 -84 496 -177 302 -149 522
-335 714 -603 55 -76 115 -163 132 -192 38 -62 94 -228 123 -361 11 -51 31
-129 45 -172 26 -84 50 -228 60 -370 10 -130 -30 -411 -80 -570 -14 -41 -36
-115 -50 -165 -37 -126 -71 -215 -103 -266 -15 -24 -33 -55 -40 -69 -16 -31
-97 -141 -174 -235 -75 -93 -209 -215 -448 -406 -63 -50 -88 -62 -251 -114
-79 -26 -169 -55 -199 -65 -156 -53 -390 -90 -566 -90 -145 0 -258 20 -461 80
-72 22 -140 40 -150 40 -30 0 -212 64 -278 98 -90 46 -334 224 -439 322 -27
25 -83 88 -124 140 -41 52 -90 111 -107 130 -45 48 -112 164 -169 290 -26 58
-63 137 -82 175 -31 66 -48 109 -94 246 -56 169 -70 484 -32 749 24 168 53
257 146 450 127 261 198 363 386 550 176 176 292 266 445 348 72 38 164 88
205 110 148 81 323 129 520 142 183 12 469 5 575 -15z"/>
<path d="M24290 31654 c-175 -17 -417 -70 -605 -132 -387 -129 -529 -188 -640
-267 -33 -23 -117 -79 -187 -123 -169 -107 -199 -130 -368 -290 -123 -116
-279 -289 -374 -416 -30 -40 -227 -427 -288 -568 -29 -65 -59 -157 -78 -240
-17 -73 -33 -142 -35 -153 -21 -85 -45 -338 -51 -532 -9 -316 12 -597 65 -886
34 -183 52 -230 198 -522 118 -236 159 -307 244 -418 95 -126 266 -312 357
-390 151 -128 188 -157 302 -228 156 -98 568 -319 594 -319 8 0 57 -13 110
-30 90 -28 362 -76 642 -115 80 -11 187 -16 310 -16 187 0 213 3 558 56 186
29 343 69 487 125 70 27 342 179 486 271 383 244 627 478 892 854 61 86 97
150 127 225 23 58 62 152 87 210 101 241 149 422 187 716 15 109 8 563 -10
669 -6 39 -18 113 -27 165 -22 134 -137 491 -207 640 -14 30 -26 62 -26 70 0
16 -100 221 -118 243 -6 6 -25 39 -43 72 -18 33 -63 101 -99 150 -37 50 -85
117 -107 150 -23 33 -112 130 -200 216 -164 161 -163 160 -568 425 -125 81
-163 97 -502 210 -419 139 -585 173 -873 178 -107 2 -215 2 -240 0z m543 -925
c154 -28 345 -103 567 -224 205 -112 221 -124 373 -279 198 -203 251 -278 367
-521 199 -414 249 -620 236 -975 -7 -227 -30 -349 -96 -525 -70 -186 -209
-457 -297 -580 -137 -194 -397 -422 -593 -520 -85 -43 -238 -105 -258 -105 -8
0 -55 -14 -105 -30 -50 -17 -168 -44 -263 -60 -345 -60 -563 -36 -1014 112
-152 49 -329 156 -503 303 -135 113 -189 174 -288 325 -211 322 -267 452 -303
700 -31 215 -39 361 -32 595 6 248 32 434 79 585 29 92 42 116 129 255 65 104
85 134 175 264 45 64 302 305 387 364 191 130 559 288 736 317 204 33 515 32
703 -1z"/>
<path d="M42330 31635 c-245 -31 -573 -137 -800 -257 -103 -55 -127 -73 -273
-217 -108 -106 -146 -152 -240 -291 -136 -202 -178 -293 -212 -463 -43 -214
-34 -521 22 -692 54 -167 235 -456 377 -603 109 -112 184 -170 376 -289 240
-149 265 -160 495 -229 161 -49 271 -87 326 -115 30 -15 102 -44 160 -65 290
-103 389 -137 444 -153 117 -34 136 -48 293 -214 189 -201 219 -265 209 -451
-7 -135 -23 -186 -93 -302 -105 -175 -198 -250 -419 -337 -191 -75 -508 -94
-740 -43 -366 79 -617 213 -855 456 -69 70 -135 133 -147 139 -12 6 -38 11
-59 11 -30 0 -42 -7 -68 -37 -17 -20 -124 -132 -238 -249 -113 -116 -214 -223
-223 -237 -21 -33 -22 -130 -1 -161 8 -13 77 -88 153 -166 153 -158 215 -205
458 -342 83 -46 166 -94 185 -106 48 -31 263 -97 390 -121 109 -21 308 -43
563 -62 109 -8 181 -8 275 1 465 41 521 49 642 92 30 10 77 26 105 35 27 8 85
38 130 65 259 163 341 226 496 385 182 185 352 536 404 832 19 108 19 317 0
417 -16 86 -72 251 -109 324 -13 25 -52 101 -86 170 -34 69 -77 148 -95 175
-44 67 -221 240 -320 313 -75 56 -121 82 -422 239 -131 68 -246 112 -382 144
-123 29 -336 100 -506 170 -82 34 -194 79 -248 100 -140 56 -202 89 -292 157
-156 117 -236 217 -275 343 -45 144 -9 354 80 465 57 72 226 216 291 249 160
82 606 64 840 -34 128 -53 348 -220 403 -305 35 -54 70 -89 97 -99 24 -8 84
27 159 93 36 31 94 76 129 100 36 24 117 93 181 154 93 89 126 115 168 129 32
11 71 35 99 62 44 43 46 46 40 90 -6 62 -49 105 -152 155 -44 22 -136 81 -205
131 -157 116 -201 143 -298 184 -42 18 -151 64 -242 102 -188 80 -233 95 -345
118 -260 51 -460 63 -645 40z"/>
<path d="M28710 31593 c-51 -10 -164 -16 -354 -18 -190 -2 -282 -7 -290 -15
-6 -6 -10 -32 -8 -58 1 -26 6 -1240 10 -2697 7 -2476 8 -2653 24 -2677 23 -35
37 -36 500 -34 357 1 389 2 405 19 16 16 19 49 25 315 4 163 9 964 10 1779 3
1356 4 1484 19 1499 22 21 50 6 80 -43 62 -104 189 -286 244 -349 34 -40 95
-118 136 -174 81 -112 87 -120 239 -311 218 -275 427 -550 484 -639 16 -25 62
-88 103 -140 117 -153 321 -428 381 -515 30 -43 73 -102 97 -130 55 -64 144
-183 192 -258 37 -55 179 -249 300 -408 32 -42 87 -118 123 -170 36 -52 100
-140 142 -196 42 -56 86 -120 97 -141 27 -53 92 -109 141 -122 49 -13 774 -10
802 4 10 4 20 17 24 29 3 11 6 1229 6 2706 -1 2396 -3 2687 -16 2697 -11 8
-139 10 -448 7 -422 -5 -433 -5 -451 -25 -17 -20 -17 -105 -13 -1832 2 -996 6
-1827 7 -1846 6 -58 -21 -44 -143 76 -86 84 -126 132 -168 203 -30 50 -75 119
-100 152 -60 80 -149 204 -234 325 -38 55 -162 222 -275 372 -190 252 -259
345 -396 532 -27 37 -72 95 -100 127 -58 70 -186 239 -266 354 -31 44 -68 92
-82 107 -13 15 -35 43 -48 63 -26 39 -155 212 -223 300 -38 48 -90 122 -232
331 -17 25 -52 72 -76 105 -25 32 -76 105 -113 163 -134 206 -169 255 -224
315 -26 28 -68 84 -95 126 -33 53 -59 82 -83 93 -39 19 -52 19 -153 -1z"/>
<path d="M44508 31561 c-26 -22 -25 10 -14 -440 8 -334 9 -345 30 -366 21 -21
34 -22 281 -28 142 -4 470 -7 730 -7 366 0 475 -3 489 -13 16 -12 17 -109 17
-1762 -1 -963 -4 -1989 -8 -2281 -6 -524 -6 -531 14 -551 20 -20 35 -21 424
-25 222 -2 423 -2 447 0 74 7 72 -11 62 487 -5 242 -12 1135 -15 1985 -4 850
-10 1655 -14 1790 -8 253 -4 346 18 360 7 4 336 7 730 7 761 0 786 1 816 47
12 18 16 79 20 317 8 408 8 400 -18 425 -22 21 -30 22 -667 33 -355 6 -1070
16 -1590 21 -520 5 -1122 12 -1337 14 -367 4 -394 3 -415 -13z"/>
<path d="M35298 31550 c-1176 -4 -1630 -8 -1638 -16 -8 -8 -11 -737 -10 -2703
0 -1480 3 -2698 6 -2706 4 -9 15 -20 25 -25 26 -14 3312 -15 3338 -1 10 6 20
16 22 23 3 7 2 194 -1 414 -5 384 -6 403 -25 424 l-20 23 -590 -8 c-324 -4
-849 -10 -1165 -14 -406 -6 -585 -5 -610 3 -63 20 -63 14 -55 719 7 558 9 630
24 647 22 26 20 26 1091 16 875 -8 906 -8 928 10 l23 19 2 413 c3 391 2 414
-16 430 -17 15 -94 16 -1004 14 -1096 -3 -1022 -8 -1042 65 -7 25 -11 274 -11
709 0 625 1 673 18 693 l17 22 1163 -1 c764 0 1176 3 1200 10 71 19 66 -10 68
407 2 370 2 378 -19 401 -15 16 -30 21 -56 20 -20 -2 -768 -5 -1663 -8z"/>
<path d="M55136 31547 c-17 -12 -17 -75 -14 -1222 2 -666 3 -1884 3 -2707 l0
-1497 21 -22 c22 -21 27 -21 430 -23 225 -1 421 2 437 7 15 5 32 18 38 29 7
13 10 296 8 879 -2 750 0 862 13 875 13 13 95 16 569 18 673 3 926 24 1138 91
42 14 82 25 88 25 21 0 257 137 340 197 43 31 106 73 140 95 73 46 164 141
231 240 27 40 79 118 117 173 155 228 215 414 270 835 30 234 7 566 -61 855
-38 164 -75 245 -167 375 -167 236 -217 289 -377 408 -52 38 -106 82 -120 97
-36 39 -133 89 -228 119 -236 74 -597 142 -832 157 -74 4 -561 8 -1081 9 -758
0 -949 -3 -963 -13z m1912 -817 c123 -6 255 -15 294 -21 168 -26 278 -91 504
-298 34 -31 50 -60 94 -172 49 -126 54 -144 73 -312 21 -175 21 -179 3 -335
-18 -154 -65 -333 -110 -420 -31 -61 -141 -175 -239 -249 -146 -111 -295 -169
-502 -197 -192 -25 -909 -61 -1007 -50 -62 7 -71 14 -83 59 -4 17 -6 395 -6
840 1 446 -3 882 -9 969 -11 181 -8 192 59 198 69 6 707 -3 929 -12z"/>
<path d="M37656 29127 c-18 -13 -19 -32 -18 -388 0 -431 -7 -402 105 -414 34
-3 577 -5 1207 -3 871 2 1152 6 1172 15 16 7 30 23 34 38 4 15 3 177 -2 360
-8 315 -10 336 -29 354 -19 18 -57 19 -935 30 -503 6 -1050 14 -1215 17 -252
5 -303 4 -319 -9z"/>
<path d="M23270 24830 c-256 -25 -390 -78 -677 -272 -173 -116 -212 -153 -275
-263 -22 -38 -52 -88 -66 -110 -83 -128 -160 -338 -171 -465 -10 -108 3 -292
25 -356 29 -89 127 -267 221 -406 104 -152 186 -236 285 -288 34 -18 103 -60
152 -92 166 -108 440 -224 586 -247 121 -20 518 -203 630 -290 19 -15 58 -45
85 -65 63 -48 78 -72 115 -182 36 -105 38 -160 9 -267 -27 -100 -77 -175 -169
-255 -161 -140 -244 -165 -545 -165 -225 0 -291 8 -384 49 -95 42 -274 202
-397 356 -92 114 -140 112 -276 -9 -36 -32 -111 -94 -168 -138 -62 -49 -111
-95 -126 -121 -30 -50 -31 -111 -5 -162 39 -73 265 -303 334 -339 18 -9 82
-51 142 -94 61 -43 140 -92 176 -109 114 -53 412 -109 664 -125 204 -13 572
32 725 88 89 33 228 115 342 204 206 161 292 280 371 513 71 210 100 520 68
723 -17 104 -71 259 -131 371 -42 77 -67 109 -162 202 -131 128 -166 156 -262
206 -262 138 -401 200 -537 242 -247 75 -328 107 -539 213 -260 130 -314 172
-371 290 l-41 84 3 122 c4 116 6 125 40 197 50 104 94 150 186 198 163 85 295
101 484 58 140 -32 211 -68 370 -188 42 -32 107 -71 145 -89 58 -26 78 -30
130 -27 54 3 67 9 113 46 50 39 168 177 234 271 40 59 70 153 57 186 -34 89
-127 162 -359 282 -69 36 -137 74 -151 83 -45 31 -193 87 -300 113 -89 22
-135 27 -300 31 -107 2 -233 1 -280 -4z"/>
<path d="M50091 24766 c-9 -10 -12 -238 -11 -890 0 -866 0 -876 -20 -896 -20
-20 -27 -20 -906 -16 l-885 4 -25 23 -24 22 0 858 c0 755 -2 858 -15 869 -14
12 -327 23 -690 25 l-100 0 2 -2135 c2 -2068 3 -2135 21 -2160 10 -13 32 -27
49 -31 16 -3 178 -3 360 0 312 6 332 7 353 26 l22 20 -6 850 c-4 468 -7 869
-7 892 0 23 5 51 10 62 15 27 83 34 211 21 58 -5 448 -13 868 -17 l764 -6 16
-26 c16 -23 17 -82 13 -681 -2 -360 0 -756 4 -879 7 -218 8 -225 31 -248 l24
-24 322 6 c316 6 323 6 341 28 18 21 19 95 16 2132 -2 1160 -7 2118 -11 2127
-14 29 -68 37 -238 38 -91 0 -221 4 -290 10 -166 13 -186 12 -199 -4z"/>
<path d="M30584 24756 c-37 -16 -63 -65 -140 -266 -31 -80 -92 -218 -135 -306
-44 -89 -90 -193 -103 -230 -29 -84 -161 -393 -210 -489 -32 -63 -63 -135
-140 -325 -15 -36 -34 -77 -42 -92 -8 -15 -26 -56 -38 -90 -25 -65 -59 -145
-141 -328 -51 -113 -148 -349 -160 -390 -4 -14 -45 -102 -91 -197 -46 -95 -99
-217 -119 -270 -71 -195 -105 -274 -215 -500 -50 -103 -107 -228 -127 -277
-46 -120 -121 -285 -143 -316 -25 -36 -80 -159 -80 -181 0 -10 12 -26 26 -35
22 -15 65 -17 384 -18 344 0 361 1 387 20 18 12 56 75 103 165 41 80 89 170
107 200 52 89 112 247 133 351 22 105 48 176 73 196 12 11 45 12 139 8 244
-11 1130 -17 1458 -9 185 4 355 5 379 2 65 -9 96 -47 111 -140 22 -130 105
-363 195 -544 94 -192 129 -240 183 -254 20 -6 125 -11 232 -11 107 -1 256 -3
330 -3 l135 -2 3 35 c3 44 -20 130 -96 345 -79 225 -108 295 -185 450 -35 72
-90 195 -121 275 -31 80 -70 174 -86 210 -16 36 -49 111 -74 167 -26 56 -46
105 -46 109 0 4 -13 34 -30 68 -38 78 -99 231 -110 276 -11 44 -89 226 -165
385 -69 143 -139 309 -165 385 -24 74 -93 227 -172 385 -36 72 -86 186 -112
255 -59 156 -97 240 -202 455 -83 170 -127 287 -159 422 -15 65 -21 75 -54 95
-33 21 -45 23 -141 19 -148 -7 -164 -6 -365 2 -145 6 -186 5 -211 -7z m385
-1094 c31 -30 51 -86 107 -297 47 -178 66 -228 207 -540 27 -60 57 -133 67
-161 46 -130 171 -391 230 -479 56 -84 53 -127 -10 -145 -19 -5 -299 -10 -669
-10 -635 -1 -636 -1 -653 20 -15 19 -16 25 -1 73 8 29 39 88 69 133 30 44 70
120 88 170 19 49 63 168 99 264 35 96 77 202 92 235 81 177 150 372 195 545
50 199 110 262 179 192z"/>
<path d="M36757 24751 c-9 -11 -13 -541 -15 -2142 -2 -2057 -2 -2129 16 -2147
17 -17 48 -19 394 -26 405 -7 423 -5 435 43 3 14 3 243 -1 510 -20 1438 -26
2010 -27 2834 l-1 908 -27 13 c-40 21 -758 27 -774 7z"/>
<path d="M40065 24760 c-152 -8 -201 -24 -245 -80 -59 -75 -237 -461 -325
-705 -31 -85 -117 -285 -206 -475 -21 -47 -52 -124 -68 -170 -60 -178 -96
-261 -191 -442 -17 -31 -30 -62 -30 -69 0 -7 -16 -47 -35 -89 -19 -41 -62
-149 -95 -240 -33 -91 -92 -232 -129 -315 -85 -187 -151 -340 -151 -353 0 -38
-111 -298 -215 -502 -13 -25 -37 -81 -55 -125 -32 -80 -49 -126 -112 -306 -20
-56 -57 -134 -90 -186 -72 -113 -107 -188 -101 -214 3 -11 17 -28 31 -37 23
-15 64 -17 393 -15 453 2 422 -8 493 159 73 170 119 274 171 379 38 78 62 142
80 220 48 208 50 210 282 194 131 -9 926 -7 1523 4 52 1 74 -4 110 -23 40 -22
52 -38 103 -135 96 -185 130 -276 202 -543 51 -189 69 -224 128 -247 51 -19
67 -20 392 -11 311 8 360 12 381 34 33 33 6 126 -106 357 -60 125 -100 221
-135 325 -67 197 -139 373 -238 582 -36 75 -90 212 -121 305 -51 155 -92 260
-150 388 -27 57 -116 280 -116 289 0 21 -176 441 -214 511 -34 63 -116 240
-116 250 0 25 -77 202 -175 400 -57 116 -117 253 -133 305 -41 129 -99 277
-122 316 -11 17 -31 62 -46 100 -34 90 -60 132 -98 155 -27 17 -50 19 -186 17
-85 -1 -213 -4 -285 -8z m159 -1164 c25 -27 54 -77 75 -128 19 -46 48 -106 64
-135 15 -28 49 -109 73 -180 25 -70 56 -157 69 -193 37 -106 78 -204 173 -415
49 -110 93 -216 97 -235 4 -19 16 -57 26 -83 11 -28 19 -73 19 -107 0 -101 44
-95 -645 -96 -324 0 -604 4 -622 8 -17 5 -34 16 -37 24 -14 37 26 143 98 257
18 29 38 68 46 87 7 19 26 58 41 85 28 50 129 305 129 325 0 24 172 451 210
521 16 30 43 103 59 163 29 103 51 146 74 146 6 0 29 -20 51 -44z"/>
<path d="M51570 24754 c-15 -7 -29 -20 -31 -30 -8 -34 10 -2279 21 -2649 8
-280 14 -385 30 -475 69 -390 159 -590 351 -776 46 -44 117 -103 158 -130 41
-27 99 -66 130 -86 102 -69 166 -97 297 -132 212 -58 330 -70 639 -69 281 0
424 14 648 63 245 54 563 299 723 560 111 181 189 346 220 463 48 186 48 196
49 1755 0 1290 -2 1464 -15 1482 -15 20 -28 20 -384 23 -270 1 -373 -1 -385
-10 -15 -10 -16 -138 -13 -1435 2 -921 -1 -1459 -7 -1525 -10 -103 -62 -285
-104 -368 -76 -152 -235 -278 -383 -304 -239 -41 -526 -39 -659 3 -123 40
-171 73 -296 206 -127 134 -154 176 -196 294 l-28 81 -3 1500 c-1 825 -4 1510
-7 1522 -11 46 -29 48 -389 48 -231 0 -347 -4 -366 -11z"/>
<path d="M55863 24761 c-193 -3 -355 -10 -360 -14 -4 -5 -10 -966 -13 -2135
l-5 -2127 24 -24 25 -23 905 5 c942 6 1048 10 1226 52 132 31 262 108 441 262
177 153 361 445 421 670 24 87 26 116 26 263 0 158 -1 169 -32 270 -39 123
-135 296 -248 447 -77 103 -101 127 -204 208 -35 28 -83 67 -106 89 -40 35
-43 43 -43 88 0 44 4 54 34 82 18 17 62 49 97 71 83 52 155 124 179 179 27 60
66 226 80 340 8 58 10 155 7 244 -4 126 -10 163 -37 257 -42 145 -61 178 -188
320 -120 133 -201 199 -336 273 -295 162 -515 201 -1156 206 -212 2 -543 0
-737 -3z m887 -721 c309 -12 471 -36 570 -82 104 -48 168 -109 211 -200 33
-70 34 -77 33 -183 -1 -60 -8 -132 -16 -160 -32 -113 -220 -337 -304 -363 -80
-24 -253 -34 -586 -36 -328 -1 -337 0 -365 20 -19 14 -30 34 -35 60 -9 55 -12
895 -4 916 18 40 94 44 496 28z m40 -1730 c412 -10 538 -27 660 -87 105 -51
179 -129 239 -253 44 -91 46 -98 49 -200 9 -238 -90 -487 -230 -583 -67 -46
-138 -64 -297 -77 -177 -14 -839 -15 -873 -2 -66 26 -73 80 -90 652 -15 530
-15 509 17 538 31 26 12 25 525 12z"/>
<path d="M25602 24747 c-7 -8 -13 -28 -13 -43 0 -16 3 -974 6 -2129 5 -1839 8
-2102 21 -2115 12 -13 70 -16 354 -20 187 -3 353 -2 368 2 54 14 54 10 51 686
-3 578 -2 624 14 640 16 15 58 18 430 23 341 5 439 10 567 28 85 11 169 25
185 30 83 25 228 88 390 169 188 94 233 128 320 247 16 22 66 80 111 128 148
161 231 384 279 757 21 162 20 245 -4 410 -35 239 -99 453 -165 551 -47 69
-248 301 -289 331 -87 66 -324 184 -467 232 -245 82 -198 79 -1231 83 -797 4
-917 3 -927 -10z m1703 -711 c282 -44 430 -130 539 -315 66 -113 87 -188 93
-346 7 -178 -11 -276 -78 -414 -42 -86 -64 -118 -135 -191 -159 -165 -244
-198 -604 -235 -88 -9 -263 -17 -405 -18 -227 -2 -253 0 -278 16 -15 10 -32
30 -38 45 -7 17 -9 263 -6 720 4 679 5 694 24 714 12 11 36 24 54 28 62 15
735 11 834 -4z"/>
<path d="M32876 24745 c-21 -10 -21 -17 -21 -335 0 -309 1 -327 20 -360 12
-19 32 -37 45 -41 14 -4 293 -7 621 -8 542 -1 598 -3 610 -18 12 -13 15 -302
19 -1759 l5 -1743 22 -23 c22 -22 30 -22 345 -30 178 -5 333 -6 345 -3 15 3
26 18 34 44 9 29 9 463 2 1757 -6 1214 -6 1726 2 1744 l10 25 340 -4 c187 -2
439 -7 560 -10 226 -7 268 -3 285 29 6 11 10 108 10 220 0 111 5 255 11 320 6
65 9 130 5 144 -15 60 96 56 -1651 59 -1082 1 -1605 -1 -1619 -8z"/>
<path d="M43518 24754 c-3 -3 -162 -8 -352 -12 -256 -5 -349 -10 -354 -19 -7
-12 -6 -3407 1 -3972 4 -271 4 -275 27 -293 21 -17 63 -18 864 -19 462 0 1071
-3 1351 -5 281 -3 525 -2 542 1 59 11 62 27 64 356 0 162 -2 302 -6 311 -3 9
-12 18 -18 20 -7 2 -444 1 -972 -2 -528 -3 -975 -3 -994 1 -44 10 -60 27 -72
75 -5 23 -9 762 -8 1783 0 1629 -1 1745 -17 1762 -17 18 -45 25 -56 13z"/>
</g>
</svg>
